<?xml version="1.0" encoding="UTF-8"?>
<!DOCTYPE svg PUBLIC "-//W3C//DTD SVG 1.1//EN" "http://www.w3.org/Graphics/SVG/1.1/DTD/svg11.dtd">
<svg xmlns="http://www.w3.org/2000/svg" version="1.1" width="612px" height="408px" style="shape-rendering:geometricPrecision; text-rendering:geometricPrecision; image-rendering:optimizeQuality; fill-rule:evenodd; clip-rule:evenodd" xmlns:xlink="http://www.w3.org/1999/xlink">
<g><path style="opacity:1" fill="#e9f2f9" d="M 527.5,377.5 C 523.167,377.5 518.833,377.5 514.5,377.5C 514.5,377.167 514.5,376.833 514.5,376.5C 515.239,376.631 515.906,376.464 516.5,376C 514.842,375.275 514.342,374.108 515,372.5C 520.053,370.729 521.553,367.395 519.5,362.5C 517.139,362.326 514.806,361.993 512.5,361.5C 512.312,359.897 512.812,358.563 514,357.5C 516.414,358.428 518.914,358.261 521.5,357C 519.172,354.889 516.672,354.055 514,354.5C 513.667,353.833 513.333,353.167 513,352.5C 508.981,353.448 505.147,353.448 501.5,352.5C 502.304,353.941 502.971,355.441 503.5,357C 501.14,361.739 499.806,366.905 499.5,372.5C 497.517,372.815 496.184,373.815 495.5,375.5C 495.5,376.167 495.5,376.833 495.5,377.5C 491.167,377.5 486.833,377.5 482.5,377.5C 483.809,374.513 485.142,371.513 486.5,368.5C 486.246,366.583 485.246,365.249 483.5,364.5C 483.818,359.968 483.485,355.634 482.5,351.5C 481.309,341.4 479.476,331.4 477,321.5C 476.255,310.838 475.589,300.172 475,289.5C 474.427,287.359 473.594,285.359 472.5,283.5C 475.13,281.372 477.63,279.039 480,276.5C 480.74,275.251 480.573,274.251 479.5,273.5C 481.116,271.688 482.116,269.521 482.5,267C 481.387,263.679 480.054,260.513 478.5,257.5C 477.492,254.156 476.492,250.823 475.5,247.5C 475.841,243.84 475.175,240.507 473.5,237.5C 471.718,230.215 468.385,223.715 463.5,218C 459.625,216.48 455.625,216.146 451.5,217C 450.058,217.377 449.058,218.21 448.5,219.5C 447.108,221.273 445.941,223.273 445,225.5C 445.845,233.633 443.511,240.633 438,246.5C 437.109,249.498 437.609,252.164 439.5,254.5C 438.442,257.413 437.109,260.246 435.5,263C 432.843,263.175 430.176,263.008 427.5,262.5C 424.212,259.535 420.545,259.035 416.5,261C 415.167,261.667 415.167,262.333 416.5,263C 419.146,263.497 421.813,263.664 424.5,263.5C 428.951,274.282 435.951,276.282 445.5,269.5C 445.833,270.833 446.167,272.167 446.5,273.5C 446.5,274.5 446.5,275.5 446.5,276.5C 444.56,281.659 443.226,286.993 442.5,292.5C 441.778,292.918 441.278,293.584 441,294.5C 438.982,292.65 437.149,290.65 435.5,288.5C 434.228,287.954 432.894,287.621 431.5,287.5C 423.648,290.463 415.648,292.463 407.5,293.5C 407.5,292.5 407.5,291.5 407.5,290.5C 411.432,289.688 415.098,288.188 418.5,286C 421.833,285.667 425.167,285.333 428.5,285C 428.957,284.586 429.291,284.086 429.5,283.5C 425.267,279.78 420.6,276.613 415.5,274C 411.179,273.501 406.846,273.334 402.5,273.5C 402.5,253.833 402.5,234.167 402.5,214.5C 407.276,213.979 412.109,214.312 417,215.5C 421.82,214.88 426.653,214.38 431.5,214C 433.215,213.223 434.215,211.89 434.5,210C 432.767,206.224 430.101,203.224 426.5,201C 418.711,198.375 410.711,196.875 402.5,196.5C 402.5,195.5 402.5,194.5 402.5,193.5C 406.78,192.46 411.113,192.294 415.5,193C 421.325,195.745 426.992,198.745 432.5,202C 436.833,202.667 441.167,202.667 445.5,202C 454.111,196.765 460.111,189.432 463.5,180C 454.989,180.406 446.989,178.74 439.5,175C 438.549,174.282 438.383,173.449 439,172.5C 448.39,170.893 457.89,169.726 467.5,169C 468.958,166.54 470.791,164.373 473,162.5C 473.669,154.675 472.835,147.008 470.5,139.5C 469.019,138.52 467.685,137.353 466.5,136C 458.281,133.865 449.947,133.199 441.5,134C 436.945,139.555 432.779,145.388 429,151.5C 425.952,155.592 422.452,159.258 418.5,162.5C 417.369,160.926 417.202,159.259 418,157.5C 421.992,150.332 425.492,142.999 428.5,135.5C 424.491,135.858 420.491,136.358 416.5,137C 412.12,139.516 407.453,141.35 402.5,142.5C 402.5,138.167 402.5,133.833 402.5,129.5C 394.677,128.671 386.677,128.171 378.5,128C 386.828,123.003 395.828,120.003 405.5,119C 408.436,117.351 411.436,115.851 414.5,114.5C 416.7,104.994 412.866,100.327 403,100.5C 391.371,101.398 381.204,105.731 372.5,113.5C 367.726,117.899 363.392,122.732 359.5,128C 356.854,128.497 354.187,128.664 351.5,128.5C 354.945,122.882 358.611,117.382 362.5,112C 368.896,107.287 375.563,102.787 382.5,98.5C 383.52,96.5675 383.687,94.5675 383,92.5C 378.672,87.1911 373.506,86.1911 367.5,89.5C 360.453,94.3795 354.62,100.38 350,107.5C 347.983,114.575 345.816,121.575 343.5,128.5C 322.167,128.5 300.833,128.5 279.5,128.5C 279.5,127.833 279.167,127.5 278.5,127.5C 276.836,124.841 275.17,122.175 273.5,119.5C 272.92,117.251 271.587,115.585 269.5,114.5C 269.573,112.973 268.906,111.973 267.5,111.5C 267.5,110.833 267.167,110.5 266.5,110.5C 269.034,104.232 271.367,97.8985 273.5,91.5C 265.167,91.5 256.833,91.5 248.5,91.5C 248.359,85.9924 246.359,81.4924 242.5,78C 240.527,77.5045 238.527,77.3379 236.5,77.5C 236.833,76.8333 237.167,76.1667 237.5,75.5C 240.1,77.0787 242.433,76.7453 244.5,74.5C 245.662,69.8687 245.828,65.202 245,60.5C 241.505,56.2236 237.005,54.7236 231.5,56C 229.099,58.0624 226.433,59.7291 223.5,61C 222.773,63.124 222.106,65.2906 221.5,67.5C 222.188,68.8549 223.188,69.8549 224.5,70.5C 226.118,72.316 228.118,73.6493 230.5,74.5C 230.5,75.1667 230.5,75.8333 230.5,76.5C 226.541,76.0713 223.041,77.0713 220,79.5C 214.362,88.4047 212.029,98.0714 213,108.5C 216.321,109.971 219.821,110.637 223.5,110.5C 222.212,116.847 222.212,123.18 223.5,129.5C 222.5,129.5 221.5,129.5 220.5,129.5C 220.5,137.833 220.5,146.167 220.5,154.5C 214.51,151.116 208.177,149.783 201.5,150.5C 204.741,156.31 207.408,162.31 209.5,168.5C 209.167,169.167 208.833,169.833 208.5,170.5C 201.574,163.415 195.24,155.915 189.5,148C 167.336,144.658 160.003,153.491 167.5,174.5C 168.167,175.167 168.833,175.833 169.5,176.5C 177.462,177.64 185.462,178.307 193.5,178.5C 193.64,180.124 192.973,181.29 191.5,182C 185.797,184.735 179.797,185.902 173.5,185.5C 175.638,193.149 179.971,199.316 186.5,204C 195.032,204.444 202.699,201.944 209.5,196.5C 213.107,195.511 216.774,195.177 220.5,195.5C 220.5,196.833 220.5,198.167 220.5,199.5C 214.811,200.115 209.144,200.948 203.5,202C 200.84,203.827 198.506,205.994 196.5,208.5C 195.754,209.736 195.421,211.07 195.5,212.5C 203.617,214.367 211.95,215.033 220.5,214.5C 220.5,218.5 220.5,222.5 220.5,226.5C 213.362,232.445 209.695,240.112 209.5,249.5C 207.896,250.287 207.229,251.62 207.5,253.5C 204.794,253.575 202.127,253.908 199.5,254.5C 198.761,254.631 198.094,254.464 197.5,254C 195.858,251.19 193.858,248.69 191.5,246.5C 190.167,246.167 188.833,245.833 187.5,245.5C 184.53,246.426 181.53,247.092 178.5,247.5C 178.46,244.119 177.127,241.452 174.5,239.5C 174.5,239.167 174.5,238.833 174.5,238.5C 174.5,237.5 174.5,236.5 174.5,235.5C 175.15,235.196 175.817,234.863 176.5,234.5C 177.659,230.878 177.825,227.211 177,223.5C 176.617,224.056 176.117,224.389 175.5,224.5C 176.291,221.583 176.291,218.75 175.5,216C 169.361,214.549 163.861,215.716 159,219.5C 158.412,222.139 158.912,224.473 160.5,226.5C 160.75,228.674 161.75,230.341 163.5,231.5C 164.167,232.5 164.833,233.5 165.5,234.5C 165.5,235.5 165.5,236.5 165.5,237.5C 159.871,242.091 156.871,248.091 156.5,255.5C 155.596,256.209 155.263,257.209 155.5,258.5C 151.818,258.591 148.651,259.924 146,262.5C 145.667,262.167 145.333,261.833 145,261.5C 143.145,263.355 141.312,265.188 139.5,267C 142.432,268.766 145.599,270.266 149,271.5C 150.885,270.008 151.885,268.008 152,265.5C 152.498,268.482 152.665,271.482 152.5,274.5C 152.5,277.5 152.5,280.5 152.5,283.5C 149.482,283.665 146.482,283.498 143.5,283C 136.74,280.225 129.74,278.891 122.5,279C 112.944,284.889 105.444,292.722 100,302.5C 97.7233,309.823 98.39,316.823 102,323.5C 105.029,327.7 108.362,331.7 112,335.5C 116.928,338.807 122.261,341.141 128,342.5C 131.917,341.638 134.75,339.471 136.5,336C 140.674,334.277 144.674,332.277 148.5,330C 149.894,327.571 151.56,325.404 153.5,323.5C 148.563,339.493 147.229,355.826 149.5,372.5C 149.5,373.167 149.833,373.5 150.5,373.5C 150.5,374.833 150.5,376.167 150.5,377.5C 142.833,377.5 135.167,377.5 127.5,377.5C 126.526,375.915 125.026,374.915 123,374.5C 122.512,369.393 121.512,364.393 120,359.5C 118.269,356.698 116.102,356.031 113.5,357.5C 111.208,360.263 108.374,362.596 105,364.5C 103.991,366.025 103.491,367.692 103.5,369.5C 108.313,369.892 111.646,372.226 113.5,376.5C 112.508,376.328 111.842,376.662 111.5,377.5C 106.833,377.5 102.167,377.5 97.5,377.5C 82.8475,363.9 71.3475,347.9 63,329.5C 50.1556,299.808 53.4889,272.141 73,246.5C 93.0072,226.83 106.007,203.163 112,175.5C 115.573,155.254 118.573,134.92 121,114.5C 123.641,94.5544 131.307,76.8877 144,61.5C 161.3,45.9328 181.467,35.7662 204.5,31C 227.93,25.3231 250.93,26.6564 273.5,35C 285.605,40.2189 297.272,46.2189 308.5,53C 317.872,58.1768 327.872,60.5102 338.5,60C 374.757,49.9398 411.424,47.9398 448.5,54C 467.388,58.0241 483.555,66.8575 497,80.5C 507.593,93.9394 513.26,109.273 514,126.5C 512.174,148.804 510.341,171.137 508.5,193.5C 508.553,214.376 512.72,234.376 521,253.5C 526.939,265.044 532.606,276.711 538,288.5C 544.084,305.85 545.084,323.516 541,341.5C 537.369,353.9 532.869,365.9 527.5,377.5 Z"/></g>
<g><path style="opacity:1" fill="#343e5d" d="M 237.5,75.5 C 238.263,74.7321 239.263,74.2321 240.5,74C 241.252,73.3292 241.586,72.4959 241.5,71.5C 242.473,69.0521 242.806,66.3854 242.5,63.5C 238.914,64.7926 235.248,65.7926 231.5,66.5C 234.23,64.0741 237.563,62.7407 241.5,62.5C 241.707,59.8732 240.54,58.2065 238,57.5C 233.849,59.9386 229.349,61.272 224.5,61.5C 223.459,64.5422 223.459,67.5422 224.5,70.5C 223.188,69.8549 222.188,68.8549 221.5,67.5C 222.106,65.2906 222.773,63.124 223.5,61C 226.433,59.7291 229.099,58.0624 231.5,56C 237.005,54.7236 241.505,56.2236 245,60.5C 245.828,65.202 245.662,69.8687 244.5,74.5C 242.433,76.7453 240.1,77.0787 237.5,75.5 Z"/></g>
<g><path style="opacity:1" fill="#283961" d="M 231.5,66.5 C 231.721,69.2788 231.388,71.9455 230.5,74.5C 228.118,73.6493 226.118,72.316 224.5,70.5C 223.459,67.5422 223.459,64.5422 224.5,61.5C 229.349,61.272 233.849,59.9386 238,57.5C 240.54,58.2065 241.707,59.8732 241.5,62.5C 237.563,62.7407 234.23,64.0741 231.5,66.5 Z"/></g>
<g><path style="opacity:1" fill="#dbafa0" d="M 241.5,71.5 C 241.799,69.396 241.466,67.396 240.5,65.5C 238.057,67.0553 235.39,67.722 232.5,67.5C 232.5,70.8333 232.5,74.1667 232.5,77.5C 233.833,77.5 235.167,77.5 236.5,77.5C 235.903,78.1386 235.07,78.472 234,78.5C 232.301,78.6134 231.134,77.9468 230.5,76.5C 230.5,75.8333 230.5,75.1667 230.5,74.5C 231.388,71.9455 231.721,69.2788 231.5,66.5C 235.248,65.7926 238.914,64.7926 242.5,63.5C 242.806,66.3854 242.473,69.0521 241.5,71.5 Z"/></g>
<g><path style="opacity:1" fill="#f9af7c" d="M 241.5,71.5 C 241.586,72.4959 241.252,73.3292 240.5,74C 239.263,74.2321 238.263,74.7321 237.5,75.5C 237.167,76.1667 236.833,76.8333 236.5,77.5C 235.167,77.5 233.833,77.5 232.5,77.5C 232.5,74.1667 232.5,70.8333 232.5,67.5C 235.39,67.722 238.057,67.0553 240.5,65.5C 241.466,67.396 241.799,69.396 241.5,71.5 Z"/></g>
<g><path style="opacity:1" fill="#8c9df0" d="M 230.5,76.5 C 231.134,77.9468 232.301,78.6134 234,78.5C 235.07,78.472 235.903,78.1386 236.5,77.5C 238.527,77.3379 240.527,77.5045 242.5,78C 246.359,81.4924 248.359,85.9924 248.5,91.5C 246.323,96.0129 244.323,100.68 242.5,105.5C 240.167,105.5 237.833,105.5 235.5,105.5C 233.952,105.821 233.285,106.821 233.5,108.5C 231.585,108.216 229.919,108.549 228.5,109.5C 226.585,109.216 224.919,109.549 223.5,110.5C 219.821,110.637 216.321,109.971 213,108.5C 212.029,98.0714 214.362,88.4047 220,79.5C 223.041,77.0713 226.541,76.0713 230.5,76.5 Z"/></g>
<g><path style="opacity:1" fill="#d3dffc" d="M 351.5,128.5 C 348.833,128.5 346.167,128.5 343.5,128.5C 345.816,121.575 347.983,114.575 350,107.5C 354.62,100.38 360.453,94.3795 367.5,89.5C 373.506,86.1911 378.672,87.1911 383,92.5C 383.687,94.5675 383.52,96.5675 382.5,98.5C 375.563,102.787 368.896,107.287 362.5,112C 358.611,117.382 354.945,122.882 351.5,128.5 Z"/></g>
<g><path style="opacity:1" fill="#27385f" d="M 248.5,91.5 C 256.833,91.5 265.167,91.5 273.5,91.5C 271.367,97.8985 269.034,104.232 266.5,110.5C 257.983,110.826 249.65,110.493 241.5,109.5C 241.5,108.833 241.5,108.167 241.5,107.5C 242.338,107.158 242.672,106.492 242.5,105.5C 244.323,100.68 246.323,96.0129 248.5,91.5 Z"/></g>
<g><path style="opacity:1" fill="#8e9fbf" d="M 258.5,99.5 C 259.776,100.386 259.776,101.386 258.5,102.5C 257.438,101.575 257.438,100.575 258.5,99.5 Z"/></g>
<g><path style="opacity:1" fill="#cedcfa" d="M 402.5,129.5 C 381.5,129.5 360.5,129.5 339.5,129.5C 319.833,129.5 300.167,129.5 280.5,129.5C 279.833,129.5 279.5,129.167 279.5,128.5C 300.833,128.5 322.167,128.5 343.5,128.5C 346.167,128.5 348.833,128.5 351.5,128.5C 354.187,128.664 356.854,128.497 359.5,128C 363.392,122.732 367.726,117.899 372.5,113.5C 381.204,105.731 391.371,101.398 403,100.5C 412.866,100.327 416.7,104.994 414.5,114.5C 411.436,115.851 408.436,117.351 405.5,119C 395.828,120.003 386.828,123.003 378.5,128C 386.677,128.171 394.677,128.671 402.5,129.5 Z"/></g>
<g><path style="opacity:1" fill="#e3b2a7" d="M 235.5,105.5 C 237.833,105.5 240.167,105.5 242.5,105.5C 242.672,106.492 242.338,107.158 241.5,107.5C 238.918,107.975 236.918,107.308 235.5,105.5 Z"/></g>
<g><path style="opacity:1" fill="#ab9abe" d="M 235.5,105.5 C 236.918,107.308 238.918,107.975 241.5,107.5C 241.5,108.167 241.5,108.833 241.5,109.5C 237.167,109.5 232.833,109.5 228.5,109.5C 229.919,108.549 231.585,108.216 233.5,108.5C 233.285,106.821 233.952,105.821 235.5,105.5 Z"/></g>
<g><path style="opacity:1" fill="#ab806b" d="M 223.5,110.5 C 224.919,109.549 226.585,109.216 228.5,109.5C 232.833,109.5 237.167,109.5 241.5,109.5C 249.65,110.493 257.983,110.826 266.5,110.5C 267.167,110.5 267.5,110.833 267.5,111.5C 255.833,111.5 244.167,111.5 232.5,111.5C 229.713,110.523 226.713,110.19 223.5,110.5 Z"/></g>
<g><path style="opacity:1" fill="#f79647" d="M 232.5,111.5 C 244.167,111.5 255.833,111.5 267.5,111.5C 268.906,111.973 269.573,112.973 269.5,114.5C 270.08,116.749 271.413,118.415 273.5,119.5C 275.17,122.175 276.836,124.841 278.5,127.5C 278.031,130.393 279.031,132.393 281.5,133.5C 281.427,135.027 282.094,136.027 283.5,136.5C 283.97,140.35 284.97,144.017 286.5,147.5C 285.127,147.657 283.793,147.49 282.5,147C 280.559,144.546 278.225,142.713 275.5,141.5C 272.515,139.016 269.682,136.349 267,133.5C 263.209,139.898 260.043,146.564 257.5,153.5C 256.041,153.567 254.708,153.234 253.5,152.5C 253.447,146.804 253.78,141.138 254.5,135.5C 254.833,135.5 255.167,135.5 255.5,135.5C 256.768,133.095 257.435,130.428 257.5,127.5C 257.5,126.5 257.5,125.5 257.5,124.5C 253.5,125.5 249.5,126.5 245.5,127.5C 238.5,127.5 231.5,127.5 224.5,127.5C 224.5,122.167 224.5,116.833 224.5,111.5C 227.167,111.5 229.833,111.5 232.5,111.5 Z"/></g>
<g><path style="opacity:1" fill="#e39c6a" d="M 223.5,110.5 C 226.713,110.19 229.713,110.523 232.5,111.5C 229.833,111.5 227.167,111.5 224.5,111.5C 224.5,116.833 224.5,122.167 224.5,127.5C 231.5,127.5 238.5,127.5 245.5,127.5C 245.5,127.833 245.5,128.167 245.5,128.5C 245.5,128.833 245.5,129.167 245.5,129.5C 238.167,129.5 230.833,129.5 223.5,129.5C 222.212,123.18 222.212,116.847 223.5,110.5 Z"/></g>
<g><path style="opacity:1" fill="#e7af83" d="M 269.5,114.5 C 271.587,115.585 272.92,117.251 273.5,119.5C 271.413,118.415 270.08,116.749 269.5,114.5 Z"/></g>
<g><path style="opacity:1" fill="#f5e0d1" d="M 257.5,127.5 C 256.833,127.833 256.167,128.167 255.5,128.5C 252.167,128.5 248.833,128.5 245.5,128.5C 245.5,128.167 245.5,127.833 245.5,127.5C 249.5,126.5 253.5,125.5 257.5,124.5C 257.5,125.5 257.5,126.5 257.5,127.5 Z"/></g>
<g><path style="opacity:1" fill="#d29772" d="M 278.5,127.5 C 279.167,127.5 279.5,127.833 279.5,128.5C 279.5,129.167 279.833,129.5 280.5,129.5C 280.833,130.833 281.167,132.167 281.5,133.5C 279.031,132.393 278.031,130.393 278.5,127.5 Z"/></g>
<g><path style="opacity:1" fill="#d89e7f" d="M 257.5,127.5 C 257.435,130.428 256.768,133.095 255.5,135.5C 255.5,133.167 255.5,130.833 255.5,128.5C 256.167,128.167 256.833,127.833 257.5,127.5 Z"/></g>
<g><path style="opacity:1" fill="#d2dffd" d="M 402.5,193.5 C 402.5,176.5 402.5,159.5 402.5,142.5C 407.453,141.35 412.12,139.516 416.5,137C 420.491,136.358 424.491,135.858 428.5,135.5C 425.492,142.999 421.992,150.332 418,157.5C 417.202,159.259 417.369,160.926 418.5,162.5C 422.452,159.258 425.952,155.592 429,151.5C 432.779,145.388 436.945,139.555 441.5,134C 449.947,133.199 458.281,133.865 466.5,136C 467.685,137.353 469.019,138.52 470.5,139.5C 472.835,147.008 473.669,154.675 473,162.5C 470.791,164.373 468.958,166.54 467.5,169C 457.89,169.726 448.39,170.893 439,172.5C 438.383,173.449 438.549,174.282 439.5,175C 446.989,178.74 454.989,180.406 463.5,180C 460.111,189.432 454.111,196.765 445.5,202C 441.167,202.667 436.833,202.667 432.5,202C 426.992,198.745 421.325,195.745 415.5,193C 411.113,192.294 406.78,192.46 402.5,193.5 Z"/></g>
<g><path style="opacity:1" fill="#b68776" d="M 281.5,133.5 C 282.906,133.973 283.573,134.973 283.5,136.5C 282.094,136.027 281.427,135.027 281.5,133.5 Z"/></g>
<g><path style="opacity:1" fill="#7499ef" d="M 339.5,130.5 C 360.167,130.5 380.833,130.5 401.5,130.5C 401.667,181.168 401.5,231.834 401,282.5C 400.626,283.416 400.126,284.25 399.5,285C 400.249,286.734 400.749,288.567 401,290.5C 401.386,310.383 401.553,330.216 401.5,350C 400.281,353.319 399.281,356.319 398.5,359C 398.167,359.167 397.833,359.333 397.5,359.5C 397.165,284.496 396.165,209.829 394.5,135.5C 376.167,135.5 357.833,135.5 339.5,135.5C 339.5,133.833 339.5,132.167 339.5,130.5 Z"/></g>
<g><path style="opacity:1" fill="#829ee1" d="M 245.5,128.5 C 248.833,128.5 252.167,128.5 255.5,128.5C 255.5,130.833 255.5,133.167 255.5,135.5C 255.167,135.5 254.833,135.5 254.5,135.5C 245.833,135.5 237.167,135.5 228.5,135.5C 228.169,164.338 228.502,193.005 229.5,221.5C 226.872,222.814 224.205,224.147 221.5,225.5C 221.5,221.167 221.5,216.833 221.5,212.5C 220.515,208.366 220.182,204.032 220.5,199.5C 220.5,198.167 220.5,196.833 220.5,195.5C 220.5,181.833 220.5,168.167 220.5,154.5C 220.5,146.167 220.5,137.833 220.5,129.5C 221.5,129.5 222.5,129.5 223.5,129.5C 230.833,129.5 238.167,129.5 245.5,129.5C 245.5,129.167 245.5,128.833 245.5,128.5 Z"/></g>
<g><path style="opacity:1" fill="#7499f0" d="M 221.5,212.5 C 221.253,185.818 221.753,159.152 223,132.5C 223.308,131.692 223.808,131.025 224.5,130.5C 225.318,133.107 225.818,135.774 226,138.5C 226.5,166.165 226.667,193.831 226.5,221.5C 224.876,221.36 223.71,222.027 223,223.5C 222.823,219.644 222.323,215.977 221.5,212.5 Z"/></g>
<g><path style="opacity:1" fill="#7498f0" d="M 245.5,129.5 C 248.5,129.5 251.5,129.5 254.5,129.5C 254.5,131.167 254.5,132.833 254.5,134.5C 245.161,134.666 235.827,134.5 226.5,134C 227.167,133 227.833,132 228.5,131C 234.348,130.827 240.015,130.327 245.5,129.5 Z"/></g>
<g><path style="opacity:1" fill="#31498b" d="M 280.5,129.5 C 300.167,129.5 319.833,129.5 339.5,129.5C 339.5,129.833 339.5,130.167 339.5,130.5C 339.5,132.167 339.5,133.833 339.5,135.5C 339.957,140.421 337.957,143.921 333.5,146C 318.837,146.5 304.17,146.667 289.5,146.5C 287.972,142.952 285.972,139.619 283.5,136.5C 283.573,134.973 282.906,133.973 281.5,133.5C 281.167,132.167 280.833,130.833 280.5,129.5 Z"/></g>
<g><path style="opacity:1" fill="#87a3e3" d="M 339.5,130.5 C 339.5,130.167 339.5,129.833 339.5,129.5C 360.5,129.5 381.5,129.5 402.5,129.5C 402.5,133.833 402.5,138.167 402.5,142.5C 402.5,159.5 402.5,176.5 402.5,193.5C 402.5,194.5 402.5,195.5 402.5,196.5C 402.5,202.5 402.5,208.5 402.5,214.5C 402.5,234.167 402.5,253.833 402.5,273.5C 402.5,296.167 402.5,318.833 402.5,341.5C 402.5,347.833 402.5,354.167 402.5,360.5C 399.833,360.5 397.167,360.5 394.5,360.5C 394.5,285.5 394.5,210.5 394.5,135.5C 396.165,209.829 397.165,284.496 397.5,359.5C 397.833,359.333 398.167,359.167 398.5,359C 399.281,356.319 400.281,353.319 401.5,350C 401.553,330.216 401.386,310.383 401,290.5C 400.749,288.567 400.249,286.734 399.5,285C 400.126,284.25 400.626,283.416 401,282.5C 401.5,231.834 401.667,181.168 401.5,130.5C 380.833,130.5 360.167,130.5 339.5,130.5 Z"/></g>
<g><path style="opacity:1" fill="#bbcdfc" d="M 220.5,154.5 C 220.5,168.167 220.5,181.833 220.5,195.5C 216.774,195.177 213.107,195.511 209.5,196.5C 202.699,201.944 195.032,204.444 186.5,204C 179.971,199.316 175.638,193.149 173.5,185.5C 179.797,185.902 185.797,184.735 191.5,182C 192.973,181.29 193.64,180.124 193.5,178.5C 185.462,178.307 177.462,177.64 169.5,176.5C 168.833,175.833 168.167,175.167 167.5,174.5C 160.003,153.491 167.336,144.658 189.5,148C 195.24,155.915 201.574,163.415 208.5,170.5C 208.833,169.833 209.167,169.167 209.5,168.5C 207.408,162.31 204.741,156.31 201.5,150.5C 208.177,149.783 214.51,151.116 220.5,154.5 Z"/></g>
<g><path style="opacity:1" fill="#d2dffd" d="M 402.5,196.5 C 410.711,196.875 418.711,198.375 426.5,201C 430.101,203.224 432.767,206.224 434.5,210C 434.215,211.89 433.215,213.223 431.5,214C 426.653,214.38 421.82,214.88 417,215.5C 412.109,214.312 407.276,213.979 402.5,214.5C 402.5,208.5 402.5,202.5 402.5,196.5 Z"/></g>
<g><path style="opacity:1" fill="#bbccfa" d="M 220.5,199.5 C 220.182,204.032 220.515,208.366 221.5,212.5C 221.5,216.833 221.5,221.167 221.5,225.5C 221.5,226.167 221.167,226.5 220.5,226.5C 220.5,222.5 220.5,218.5 220.5,214.5C 211.95,215.033 203.617,214.367 195.5,212.5C 195.421,211.07 195.754,209.736 196.5,208.5C 198.506,205.994 200.84,203.827 203.5,202C 209.144,200.948 214.811,200.115 220.5,199.5 Z"/></g>
<g><path style="opacity:1" fill="#173561" d="M 163.5,231.5 C 161.75,230.341 160.75,228.674 160.5,226.5C 161.718,225.839 163.051,225.172 164.5,224.5C 163.311,223.571 161.978,223.238 160.5,223.5C 160.5,222.167 160.5,220.833 160.5,219.5C 162.167,219.5 163.833,219.5 165.5,219.5C 165.351,218.448 165.517,217.448 166,216.5C 168.719,217.444 171.552,217.777 174.5,217.5C 174.442,223.067 171.609,226.4 166,227.5C 165.812,229.061 166.645,229.728 168.5,229.5C 168.5,230.5 168.5,231.5 168.5,232.5C 166.784,232.371 165.117,232.038 163.5,231.5 Z"/></g>
<g><path style="opacity:1" fill="#ebb696" d="M 174.5,235.5 C 176.137,233.077 176.637,230.41 176,227.5C 174.989,228.337 173.822,228.67 172.5,228.5C 172.741,231.034 171.741,232.7 169.5,233.5C 170.15,231.565 170.483,229.565 170.5,227.5C 173.285,228.084 174.952,227.084 175.5,224.5C 176.117,224.389 176.617,224.056 177,223.5C 177.825,227.211 177.659,230.878 176.5,234.5C 175.817,234.863 175.15,235.196 174.5,235.5 Z"/></g>
<g><path style="opacity:1" fill="#273856" d="M 175.5,224.5 C 174.952,227.084 173.285,228.084 170.5,227.5C 170.483,229.565 170.15,231.565 169.5,233.5C 168.292,234.234 166.959,234.567 165.5,234.5C 164.833,233.5 164.167,232.5 163.5,231.5C 165.117,232.038 166.784,232.371 168.5,232.5C 168.5,231.5 168.5,230.5 168.5,229.5C 166.645,229.728 165.812,229.061 166,227.5C 171.609,226.4 174.442,223.067 174.5,217.5C 171.552,217.777 168.719,217.444 166,216.5C 165.517,217.448 165.351,218.448 165.5,219.5C 163.833,219.5 162.167,219.5 160.5,219.5C 160.5,220.833 160.5,222.167 160.5,223.5C 161.978,223.238 163.311,223.571 164.5,224.5C 163.051,225.172 161.718,225.839 160.5,226.5C 158.912,224.473 158.412,222.139 159,219.5C 163.861,215.716 169.361,214.549 175.5,216C 176.291,218.75 176.291,221.583 175.5,224.5 Z"/></g>
<g><path style="opacity:1" fill="#193660" d="M 473.5,237.5 C 473.586,238.496 473.252,239.329 472.5,240C 469.183,240.498 465.85,240.665 462.5,240.5C 462.5,236.167 462.5,231.833 462.5,227.5C 460.571,227.769 458.905,227.269 457.5,226C 459.839,223.45 459.172,222.95 455.5,224.5C 453.774,222.97 451.774,221.97 449.5,221.5C 448.702,221.043 448.369,220.376 448.5,219.5C 449.058,218.21 450.058,217.377 451.5,217C 455.625,216.146 459.625,216.48 463.5,218C 468.385,223.715 471.718,230.215 473.5,237.5 Z"/></g>
<g><path style="opacity:1" fill="#f9af7c" d="M 174.5,235.5 C 174.5,236.5 174.5,237.5 174.5,238.5C 171.167,238.5 169.5,236.833 169.5,233.5C 171.741,232.7 172.741,231.034 172.5,228.5C 173.822,228.67 174.989,228.337 176,227.5C 176.637,230.41 176.137,233.077 174.5,235.5 Z"/></g>
<g><path style="opacity:1" fill="#283757" d="M 448.5,219.5 C 448.369,220.376 448.702,221.043 449.5,221.5C 451.774,221.97 453.774,222.97 455.5,224.5C 459.172,222.95 459.839,223.45 457.5,226C 458.905,227.269 460.571,227.769 462.5,227.5C 462.5,231.833 462.5,236.167 462.5,240.5C 465.85,240.665 469.183,240.498 472.5,240C 473.252,239.329 473.586,238.496 473.5,237.5C 475.175,240.507 475.841,243.84 475.5,247.5C 471.668,243.771 467.001,241.771 461.5,241.5C 460.574,237.906 460.241,234.24 460.5,230.5C 457.697,230.039 455.363,228.705 453.5,226.5C 453.489,224.314 452.489,223.481 450.5,224C 448.072,228.296 447.906,232.796 450,237.5C 450.671,238.252 451.504,238.586 452.5,238.5C 452.5,239.833 452.5,241.167 452.5,242.5C 445.595,243.404 441.595,247.404 440.5,254.5C 440.167,254.5 439.833,254.5 439.5,254.5C 437.609,252.164 437.109,249.498 438,246.5C 443.511,240.633 445.845,233.633 445,225.5C 445.941,223.273 447.108,221.273 448.5,219.5 Z"/></g>
<g><path style="opacity:1" fill="#d2ab99" d="M 453.5,226.5 C 452.85,226.196 452.183,225.863 451.5,225.5C 448.738,230.103 449.072,234.436 452.5,238.5C 451.504,238.586 450.671,238.252 450,237.5C 447.906,232.796 448.072,228.296 450.5,224C 452.489,223.481 453.489,224.314 453.5,226.5 Z"/></g>
<g><path style="opacity:1" fill="#e0b7aa" d="M 169.5,233.5 C 169.5,236.833 171.167,238.5 174.5,238.5C 174.5,238.833 174.5,239.167 174.5,239.5C 171.5,238.833 168.5,238.167 165.5,237.5C 165.5,236.5 165.5,235.5 165.5,234.5C 166.959,234.567 168.292,234.234 169.5,233.5 Z"/></g>
<g><path style="opacity:1" fill="#345480" d="M 271.5,242.5 C 272.11,243.391 272.443,244.391 272.5,245.5C 272.5,246.5 272.5,247.5 272.5,248.5C 272.5,251.833 272.5,255.167 272.5,258.5C 264.889,279.308 250.222,286.975 228.5,281.5C 225.833,279.833 223.167,278.167 220.5,276.5C 220.103,275.475 219.437,275.308 218.5,276C 215.899,279.112 212.899,281.612 209.5,283.5C 208.209,283.737 207.209,283.404 206.5,282.5C 209.678,279.155 212.678,275.655 215.5,272C 212.209,266.958 210.209,261.458 209.5,255.5C 209.5,253.5 209.5,251.5 209.5,249.5C 209.695,240.112 213.362,232.445 220.5,226.5C 221.167,226.5 221.5,226.167 221.5,225.5C 224.205,224.147 226.872,222.814 229.5,221.5C 249.688,216.33 263.688,223.33 271.5,242.5 Z"/></g>
<g><path style="opacity:1" fill="#96b6f1" d="M 228.5,225.5 C 228.5,243.167 228.5,260.833 228.5,278.5C 225.19,276.518 222.19,274.185 219.5,271.5C 220.833,258.167 220.833,244.833 219.5,231.5C 221.63,228.263 224.63,226.263 228.5,225.5 Z"/></g>
<g><path style="opacity:1" fill="#d1e2fc" d="M 228.5,278.5 C 228.5,260.833 228.5,243.167 228.5,225.5C 245.402,219.081 258.568,223.747 268,239.5C 273.73,259.008 267.23,272.508 248.5,280C 241.656,280.99 234.99,280.49 228.5,278.5 Z"/></g>
<g><path style="opacity:1" fill="#eead83" d="M 453.5,226.5 C 455.363,228.705 457.697,230.039 460.5,230.5C 460.241,234.24 460.574,237.906 461.5,241.5C 467.001,241.771 471.668,243.771 475.5,247.5C 476.492,250.823 477.492,254.156 478.5,257.5C 475.277,255.067 473.443,251.734 473,247.5C 472.167,246.667 471.333,245.833 470.5,245C 465.736,243.651 461.069,243.151 456.5,243.5C 458.331,239.759 458.997,235.759 458.5,231.5C 456.876,231.36 455.71,232.027 455,233.5C 453.661,236.896 453.494,240.23 454.5,243.5C 452.146,243.838 449.813,244.338 447.5,245C 445.426,248.504 443.092,251.67 440.5,254.5C 441.595,247.404 445.595,243.404 452.5,242.5C 452.5,241.167 452.5,239.833 452.5,238.5C 449.072,234.436 448.738,230.103 451.5,225.5C 452.183,225.863 452.85,226.196 453.5,226.5 Z"/></g>
<g><path style="opacity:1" fill="#b9c8ef" d="M 271.5,242.5 C 290.833,242.5 310.167,242.5 329.5,242.5C 329.5,243.5 329.5,244.5 329.5,245.5C 310.5,245.5 291.5,245.5 272.5,245.5C 272.443,244.391 272.11,243.391 271.5,242.5 Z"/></g>
<g><path style="opacity:1" fill="#8b9df1" d="M 165.5,237.5 C 168.5,238.167 171.5,238.833 174.5,239.5C 177.127,241.452 178.46,244.119 178.5,247.5C 179.306,248.728 180.306,249.728 181.5,250.5C 180.305,250.866 179.639,251.699 179.5,253C 180.123,256.215 180.79,259.382 181.5,262.5C 180.341,265.253 180.841,267.919 183,270.5C 187.448,272.636 191.615,275.136 195.5,278C 197.396,280.068 199.396,281.901 201.5,283.5C 201.5,284.833 201.5,286.167 201.5,287.5C 201.167,287.5 200.833,287.5 200.5,287.5C 194.495,284.743 188.161,282.743 181.5,281.5C 181.5,286.5 181.5,291.5 181.5,296.5C 173.595,298.66 165.595,298.994 157.5,297.5C 154.458,294.455 153.125,290.621 153.5,286C 154.147,275.782 155.147,265.616 156.5,255.5C 156.871,248.091 159.871,242.091 165.5,237.5 Z"/></g>
<g><path style="opacity:1" fill="#fba464" d="M 478.5,257.5 C 480.054,260.513 481.387,263.679 482.5,267C 482.116,269.521 481.116,271.688 479.5,273.5C 475.976,274.965 472.309,275.965 468.5,276.5C 467.448,276.649 466.448,276.483 465.5,276C 468,273.5 470.5,271 473,268.5C 473.765,266.934 473.598,265.601 472.5,264.5C 470.486,261.653 467.986,259.32 465,257.5C 462.629,259.374 460.129,261.04 457.5,262.5C 455.567,262.271 453.9,261.438 452.5,260C 452.957,259.586 453.291,259.086 453.5,258.5C 452.311,257.571 450.978,257.238 449.5,257.5C 449.855,259.89 450.522,262.223 451.5,264.5C 451.308,266.577 450.808,268.577 450,270.5C 448.644,269.62 447.144,269.286 445.5,269.5C 435.951,276.282 428.951,274.282 424.5,263.5C 425.209,262.596 426.209,262.263 427.5,262.5C 430.176,263.008 432.843,263.175 435.5,263C 437.109,260.246 438.442,257.413 439.5,254.5C 439.833,254.5 440.167,254.5 440.5,254.5C 443.092,251.67 445.426,248.504 447.5,245C 449.813,244.338 452.146,243.838 454.5,243.5C 453.494,240.23 453.661,236.896 455,233.5C 455.71,232.027 456.876,231.36 458.5,231.5C 458.997,235.759 458.331,239.759 456.5,243.5C 461.069,243.151 465.736,243.651 470.5,245C 471.333,245.833 472.167,246.667 473,247.5C 473.443,251.734 475.277,255.067 478.5,257.5 Z"/></g>
<g><path style="opacity:1" fill="#b9ccf5" d="M 241.5,242.5 C 248.981,240.494 252.147,243.161 251,250.5C 248.54,251.958 246.373,253.791 244.5,256C 246.9,256.186 249.234,256.686 251.5,257.5C 247.555,258.491 243.555,258.824 239.5,258.5C 241.023,254.799 243.523,251.799 247,249.5C 247.494,247.866 247.66,246.199 247.5,244.5C 244.833,245.167 242.167,245.833 239.5,246.5C 239.527,244.801 240.194,243.467 241.5,242.5 Z"/></g>
<g><path style="opacity:1" fill="#dce7fc" d="M 199.5,254.5 C 197.205,256.385 194.538,256.885 191.5,256C 187.979,254.408 184.646,252.575 181.5,250.5C 180.306,249.728 179.306,248.728 178.5,247.5C 181.53,247.092 184.53,246.426 187.5,245.5C 188.833,245.833 190.167,246.167 191.5,246.5C 193.858,248.69 195.858,251.19 197.5,254C 198.094,254.464 198.761,254.631 199.5,254.5 Z"/></g>
<g><path style="opacity:1" fill="#b59a8c" d="M 209.5,249.5 C 209.5,251.5 209.5,253.5 209.5,255.5C 208.833,255.5 208.167,255.5 207.5,255.5C 207.5,254.833 207.5,254.167 207.5,253.5C 207.229,251.62 207.896,250.287 209.5,249.5 Z"/></g>
<g><path style="opacity:1" fill="#b8c8f4" d="M 272.5,248.5 C 282.839,248.334 293.172,248.5 303.5,249C 304.337,250.011 304.67,251.178 304.5,252.5C 294.167,252.5 283.833,252.5 273.5,252.5C 273.5,253.5 273.5,254.5 273.5,255.5C 290.167,255.5 306.833,255.5 323.5,255.5C 323.5,256.5 323.5,257.5 323.5,258.5C 306.5,258.5 289.5,258.5 272.5,258.5C 272.5,255.167 272.5,251.833 272.5,248.5 Z"/></g>
<g><path style="opacity:1" fill="#6e82db" d="M 181.5,250.5 C 184.646,252.575 187.979,254.408 191.5,256C 194.538,256.885 197.205,256.385 199.5,254.5C 202.127,253.908 204.794,253.575 207.5,253.5C 207.5,254.167 207.5,254.833 207.5,255.5C 202.711,264.165 195.377,266.998 185.5,264C 184.255,263.209 182.922,262.709 181.5,262.5C 180.79,259.382 180.123,256.215 179.5,253C 179.639,251.699 180.305,250.866 181.5,250.5 Z"/></g>
<g><path style="opacity:1" fill="#dfe9fc" d="M 155.5,258.5 C 154.35,263.929 153.35,269.263 152.5,274.5C 152.665,271.482 152.498,268.482 152,265.5C 151.885,268.008 150.885,270.008 149,271.5C 145.599,270.266 142.432,268.766 139.5,267C 141.312,265.188 143.145,263.355 145,261.5C 145.333,261.833 145.667,262.167 146,262.5C 148.651,259.924 151.818,258.591 155.5,258.5 Z"/></g>
<g><path style="opacity:1" fill="#9da9e8" d="M 156.5,255.5 C 155.147,265.616 154.147,275.782 153.5,286C 153.125,290.621 154.458,294.455 157.5,297.5C 156.5,297.5 155.5,297.5 154.5,297.5C 152.763,293.066 152.096,288.399 152.5,283.5C 152.5,280.5 152.5,277.5 152.5,274.5C 153.35,269.263 154.35,263.929 155.5,258.5C 155.263,257.209 155.596,256.209 156.5,255.5 Z"/></g>
<g><path style="opacity:1" fill="#dce8fb" d="M 207.5,255.5 C 208.167,255.5 208.833,255.5 209.5,255.5C 210.209,261.458 212.209,266.958 215.5,272C 212.678,275.655 209.678,279.155 206.5,282.5C 204.784,282.629 203.117,282.962 201.5,283.5C 199.396,281.901 197.396,280.068 195.5,278C 191.615,275.136 187.448,272.636 183,270.5C 180.841,267.919 180.341,265.253 181.5,262.5C 182.922,262.709 184.255,263.209 185.5,264C 195.377,266.998 202.711,264.165 207.5,255.5 Z"/></g>
<g><path style="opacity:1" fill="#f0f8fd" d="M 275.5,141.5 C 278.888,145.554 282.554,149.221 286.5,152.5C 286.5,153.5 286.5,154.5 286.5,155.5C 286.866,156.695 287.699,157.361 289,157.5C 292.461,156.782 295.961,156.282 299.5,156C 299.957,155.586 300.291,155.086 300.5,154.5C 299.311,153.571 297.978,153.238 296.5,153.5C 295.395,152.4 294.062,151.733 292.5,151.5C 289.916,150.952 288.916,149.285 289.5,146.5C 304.17,146.667 318.837,146.5 333.5,146C 337.957,143.921 339.957,140.421 339.5,135.5C 357.833,135.5 376.167,135.5 394.5,135.5C 394.5,210.5 394.5,285.5 394.5,360.5C 397.167,360.5 399.833,360.5 402.5,360.5C 406.371,360.185 410.038,360.518 413.5,361.5C 372.833,361.5 332.167,361.5 291.5,361.5C 290.624,361.631 289.957,361.298 289.5,360.5C 300.833,359.833 312.167,359.167 323.5,358.5C 309.5,357.167 295.5,357.167 281.5,358.5C 282.993,359.141 283.993,360.141 284.5,361.5C 282.265,361.205 280.265,361.539 278.5,362.5C 274.842,363.797 273.176,366.463 273.5,370.5C 258.5,370.5 243.5,370.5 228.5,370.5C 228.5,340.833 228.5,311.167 228.5,281.5C 250.222,286.975 264.889,279.308 272.5,258.5C 289.5,258.5 306.5,258.5 323.5,258.5C 323.5,257.5 323.5,256.5 323.5,255.5C 306.833,255.5 290.167,255.5 273.5,255.5C 273.5,254.5 273.5,253.5 273.5,252.5C 283.833,252.5 294.167,252.5 304.5,252.5C 304.67,251.178 304.337,250.011 303.5,249C 293.172,248.5 282.839,248.334 272.5,248.5C 272.5,247.5 272.5,246.5 272.5,245.5C 291.5,245.5 310.5,245.5 329.5,245.5C 329.5,244.5 329.5,243.5 329.5,242.5C 310.167,242.5 290.833,242.5 271.5,242.5C 263.688,223.33 249.688,216.33 229.5,221.5C 228.502,193.005 228.169,164.338 228.5,135.5C 237.167,135.5 245.833,135.5 254.5,135.5C 253.78,141.138 253.447,146.804 253.5,152.5C 252.649,154.882 251.316,156.882 249.5,158.5C 247.727,159.314 247.227,160.648 248,162.5C 250.702,165.701 253.869,168.368 257.5,170.5C 258.521,169.998 258.688,169.332 258,168.5C 256.855,167.364 255.688,166.364 254.5,165.5C 255.49,161.614 256.49,157.614 257.5,153.5C 260.043,146.564 263.209,139.898 267,133.5C 269.682,136.349 272.515,139.016 275.5,141.5 Z"/></g>
<g><path style="opacity:1" fill="#ef9c59" d="M 373.5,239.5 C 373.5,239.167 373.5,238.833 373.5,238.5C 374.965,237.594 375.965,236.261 376.5,234.5C 378.045,233.548 379.712,233.215 381.5,233.5C 381.649,234.552 381.483,235.552 381,236.5C 375.438,244.4 370.272,252.566 365.5,261C 364.5,261.667 363.5,261.667 362.5,261C 360.707,258.205 358.54,255.705 356,253.5C 354.175,251.52 353.341,249.187 353.5,246.5C 354.552,246.351 355.552,246.517 356.5,247C 358.674,250.004 361.008,252.837 363.5,255.5C 366.817,250.208 370.151,244.874 373.5,239.5 Z"/></g>
<g><path style="opacity:1" fill="#d2e1fb" d="M 309.5,248.5 C 316.167,248.5 322.833,248.5 329.5,248.5C 329.5,249.833 329.5,251.167 329.5,252.5C 322.833,252.5 316.167,252.5 309.5,252.5C 309.5,251.167 309.5,249.833 309.5,248.5 Z"/></g>
<g><path style="opacity:1" fill="#b3c3f2" d="M 310.5,249.5 C 316.537,249.171 322.537,249.504 328.5,250.5C 325.5,250.833 322.5,251.167 319.5,251.5C 316.087,251.483 313.087,250.816 310.5,249.5 Z"/></g>
<g><path style="opacity:1" fill="#c3d6ee" d="M 372.5,193.5 C 365.018,194.492 357.352,194.825 349.5,194.5C 349.5,203.5 349.5,212.5 349.5,221.5C 358.5,221.5 367.5,221.5 376.5,221.5C 376.065,213.389 376.565,205.389 378,197.5C 378.5,206.16 378.666,214.827 378.5,223.5C 368.5,223.5 358.5,223.5 348.5,223.5C 348.5,213.5 348.5,203.5 348.5,193.5C 356.5,193.5 364.5,193.5 372.5,193.5 Z"/></g>
<g><path style="opacity:1" fill="#bcceef" d="M 318.5,213.5 C 308.856,212.168 298.856,211.501 288.5,211.5C 278.144,211.501 268.144,212.168 258.5,213.5C 257.596,212.791 257.263,211.791 257.5,210.5C 278.167,210.5 298.833,210.5 319.5,210.5C 319.737,211.791 319.404,212.791 318.5,213.5 Z"/></g>
<g><path style="opacity:1" fill="#b4c5f5" d="M 318.5,213.5 C 298.5,213.5 278.5,213.5 258.5,213.5C 268.144,212.168 278.144,211.501 288.5,211.5C 298.856,211.501 308.856,212.168 318.5,213.5 Z"/></g>
<g><path style="opacity:1" fill="#c6d5f9" d="M 306.5,203.5 C 312.833,203.5 319.167,203.5 325.5,203.5C 325.5,204.833 325.5,206.167 325.5,207.5C 319.167,207.5 312.833,207.5 306.5,207.5C 306.5,206.167 306.5,204.833 306.5,203.5 Z"/></g>
<g><path style="opacity:1" fill="#cddbfd" d="M 258.5,204.5 C 272.657,203.504 286.99,203.171 301.5,203.5C 301.5,204.833 301.5,206.167 301.5,207.5C 286.833,207.5 272.167,207.5 257.5,207.5C 257.263,206.209 257.596,205.209 258.5,204.5 Z"/></g>
<g><path style="opacity:1" fill="#b1c4f3" d="M 258.5,204.5 C 272.183,204.167 285.85,204.501 299.5,205.5C 292.667,205.833 285.833,206.167 279,206.5C 271.799,206.497 264.966,205.83 258.5,204.5 Z"/></g>
<g><path style="opacity:1" fill="#b8c3f5" d="M 240.5,197.5 C 242.167,197.5 243.833,197.5 245.5,197.5C 245.828,202.875 245.495,208.208 244.5,213.5C 243.508,209.217 243.174,204.884 243.5,200.5C 240.433,200.879 239.433,199.879 240.5,197.5 Z"/></g>
<g><path style="opacity:1" fill="#b4c6f4" d="M 258.5,197.5 C 280.833,197.5 303.167,197.5 325.5,197.5C 325.5,198.5 325.5,199.5 325.5,200.5C 303.167,200.5 280.833,200.5 258.5,200.5C 258.5,199.5 258.5,198.5 258.5,197.5 Z"/></g>
<g><path style="opacity:1" fill="#98a4e0" d="M 306.5,163.5 C 307.833,163.5 309.167,163.5 310.5,163.5C 310.5,168.167 310.5,172.833 310.5,177.5C 313.167,177.5 315.833,177.5 318.5,177.5C 318.5,178.5 318.5,179.5 318.5,180.5C 314.5,180.5 310.5,180.5 306.5,180.5C 306.5,174.833 306.5,169.167 306.5,163.5 Z"/></g>
<g><path style="opacity:1" fill="#929ee4" d="M 333.5,164.5 C 333.5,165.5 333.5,166.5 333.5,167.5C 330.5,167.5 327.5,167.5 324.5,167.5C 324.5,168.5 324.5,169.5 324.5,170.5C 326.042,171.163 327.709,171.83 329.5,172.5C 327.709,173.17 326.042,173.837 324.5,174.5C 324.5,175.5 324.5,176.5 324.5,177.5C 327.5,177.5 330.5,177.5 333.5,177.5C 333.5,178.5 333.5,179.5 333.5,180.5C 329.5,180.5 325.5,180.5 321.5,180.5C 321.5,175.167 321.5,169.833 321.5,164.5C 325.5,164.5 329.5,164.5 333.5,164.5 Z"/></g>
<g><path style="opacity:1" fill="#b1bff3" d="M 280.5,164.5 C 277.833,164.5 275.167,164.5 272.5,164.5C 272.173,169.544 272.506,174.544 273.5,179.5C 274.172,178.051 274.839,176.718 275.5,175.5C 275.5,177.167 275.5,178.833 275.5,180.5C 274.167,180.5 272.833,180.5 271.5,180.5C 271.5,174.833 271.5,169.167 271.5,163.5C 274.713,163.19 277.713,163.523 280.5,164.5 Z"/></g>
<g><path style="opacity:1" fill="#afbdea" d="M 324.5,170.5 C 327.167,170.5 329.833,170.5 332.5,170.5C 332.5,171.833 332.5,173.167 332.5,174.5C 329.833,174.5 327.167,174.5 324.5,174.5C 326.042,173.837 327.709,173.17 329.5,172.5C 327.709,171.83 326.042,171.163 324.5,170.5 Z"/></g>
<g><path style="opacity:1" fill="#94a2e4" d="M 288.5,164.5 C 289.5,164.5 290.5,164.5 291.5,164.5C 291.185,168.371 291.518,172.038 292.5,175.5C 294.54,178.134 296.707,178.134 299,175.5C 299.499,171.848 299.665,168.182 299.5,164.5C 300.5,164.5 301.5,164.5 302.5,164.5C 302.5,168.167 302.5,171.833 302.5,175.5C 302.376,177.582 301.376,179.082 299.5,180C 296.446,180.821 293.446,180.655 290.5,179.5C 288.681,174.699 288.014,169.699 288.5,164.5 Z"/></g>
<g><path style="opacity:1" fill="#93a0e8" d="M 280.5,164.5 C 285.151,165.174 286.651,167.841 285,172.5C 281.962,175.019 282.128,177.519 285.5,180C 282.006,180.861 279.673,179.528 278.5,176C 277.552,175.517 276.552,175.351 275.5,175.5C 274.839,176.718 274.172,178.051 273.5,179.5C 272.506,174.544 272.173,169.544 272.5,164.5C 275.167,164.5 277.833,164.5 280.5,164.5 Z"/></g>
<g><path style="opacity:1" fill="#cad5fb" d="M 333.5,164.5 C 329.5,164.5 325.5,164.5 321.5,164.5C 321.5,169.833 321.5,175.167 321.5,180.5C 320.511,175.025 320.178,169.358 320.5,163.5C 325.032,163.182 329.366,163.515 333.5,164.5 Z"/></g>
<g><path style="opacity:1" fill="#e4f1ff" d="M 275.5,167.5 C 277.5,167.5 279.5,167.5 281.5,167.5C 281.938,171.908 279.938,173.575 275.5,172.5C 275.5,170.833 275.5,169.167 275.5,167.5 Z"/></g>
<g><path style="opacity:1" fill="#c0ccf9" d="M 299.5,164.5 C 300.568,163.566 301.901,163.232 303.5,163.5C 303.817,167.702 303.483,171.702 302.5,175.5C 302.5,171.833 302.5,168.167 302.5,164.5C 301.5,164.5 300.5,164.5 299.5,164.5 Z"/></g>
<g><path style="opacity:1" fill="#beccf1" d="M 288.5,164.5 C 289.568,163.566 290.901,163.232 292.5,163.5C 292.5,167.5 292.5,171.5 292.5,175.5C 291.518,172.038 291.185,168.371 291.5,164.5C 290.5,164.5 289.5,164.5 288.5,164.5 Z"/></g>
<g><path style="opacity:1" fill="#98a5e7" d="M 339.5,163.5 C 342.893,163.062 345.893,163.895 348.5,166C 347.953,166.925 347.287,167.758 346.5,168.5C 344.484,167.294 342.484,167.294 340.5,168.5C 342.416,170.317 344.749,171.484 347.5,172C 349.013,174.916 348.68,177.582 346.5,180C 343.24,180.784 340.073,180.617 337,179.5C 336.301,177.926 336.635,176.593 338,175.5C 339.897,177.016 342.064,177.683 344.5,177.5C 344.719,176.325 344.386,175.325 343.5,174.5C 337.619,174.125 335.452,171.125 337,165.5C 337.995,164.934 338.828,164.267 339.5,163.5 Z"/></g>
<g><path style="opacity:1" fill="#44455a" d="M 249.5,158.5 C 250.433,161.37 252.1,163.704 254.5,165.5C 255.688,166.364 256.855,167.364 258,168.5C 258.688,169.332 258.521,169.998 257.5,170.5C 253.869,168.368 250.702,165.701 248,162.5C 247.227,160.648 247.727,159.314 249.5,158.5 Z"/></g>
<g><path style="opacity:1" fill="#3b4154" d="M 296.5,153.5 C 297.978,153.238 299.311,153.571 300.5,154.5C 300.291,155.086 299.957,155.586 299.5,156C 295.961,156.282 292.461,156.782 289,157.5C 287.699,157.361 286.866,156.695 286.5,155.5C 289.187,155.664 291.854,155.497 294.5,155C 295.416,154.722 296.082,154.222 296.5,153.5 Z"/></g>
<g><path style="opacity:1" fill="#f4b489" d="M 253.5,152.5 C 254.708,153.234 256.041,153.567 257.5,153.5C 256.49,157.614 255.49,161.614 254.5,165.5C 252.1,163.704 250.433,161.37 249.5,158.5C 251.316,156.882 252.649,154.882 253.5,152.5 Z"/></g>
<g><path style="opacity:1" fill="#d7a992" d="M 292.5,151.5 C 294.062,151.733 295.395,152.4 296.5,153.5C 296.082,154.222 295.416,154.722 294.5,155C 291.854,155.497 289.187,155.664 286.5,155.5C 286.5,154.5 286.5,153.5 286.5,152.5C 289.012,154.179 291.012,153.845 292.5,151.5 Z"/></g>
<g><path style="opacity:1" fill="#eba068" d="M 283.5,136.5 C 285.972,139.619 287.972,142.952 289.5,146.5C 288.916,149.285 289.916,150.952 292.5,151.5C 291.012,153.845 289.012,154.179 286.5,152.5C 282.554,149.221 278.888,145.554 275.5,141.5C 278.225,142.713 280.559,144.546 282.5,147C 283.793,147.49 285.127,147.657 286.5,147.5C 284.97,144.017 283.97,140.35 283.5,136.5 Z"/></g>
<g><path style="opacity:1" fill="#f2f8fa" d="M 374.5,313.5 C 375.833,313.5 377.167,313.5 378.5,313.5C 378.5,304.167 378.5,294.833 378.5,285.5C 378.738,283.596 379.738,282.262 381.5,281.5C 382.306,280.003 382.972,278.336 383.5,276.5C 381.674,276.08 379.674,276.08 377.5,276.5C 377.5,275.5 377.5,274.5 377.5,273.5C 380.278,273.978 382.278,272.978 383.5,270.5C 381.5,270.5 379.5,270.5 377.5,270.5C 379.38,269.286 379.713,267.952 378.5,266.5C 377.833,237.167 377.167,237.167 376.5,266.5C 367.833,266.5 359.167,266.5 350.5,266.5C 350.5,257.5 350.5,248.5 350.5,239.5C 358.167,239.5 365.833,239.5 373.5,239.5C 370.151,244.874 366.817,250.208 363.5,255.5C 361.008,252.837 358.674,250.004 356.5,247C 355.552,246.517 354.552,246.351 353.5,246.5C 353.341,249.187 354.175,251.52 356,253.5C 358.54,255.705 360.707,258.205 362.5,261C 363.5,261.667 364.5,261.667 365.5,261C 370.272,252.566 375.438,244.4 381,236.5C 381.483,235.552 381.649,234.552 381.5,233.5C 379.712,233.215 378.045,233.548 376.5,234.5C 375.965,236.261 374.965,237.594 373.5,238.5C 373.5,238.167 373.5,237.833 373.5,237.5C 373.539,236.417 373.873,235.417 374.5,234.5C 370.2,232.522 368.534,229.189 369.5,224.5C 372.713,224.81 375.713,224.477 378.5,223.5C 378.666,214.827 378.5,206.16 378,197.5C 376.565,205.389 376.065,213.389 376.5,221.5C 367.5,221.5 358.5,221.5 349.5,221.5C 349.5,212.5 349.5,203.5 349.5,194.5C 357.352,194.825 365.018,194.492 372.5,193.5C 370.369,192.686 368.036,192.186 365.5,192C 364.213,190.59 363.046,189.09 362,187.5C 360.853,188.458 359.853,188.125 359,186.5C 358.503,184.19 358.337,181.857 358.5,179.5C 362.167,179.5 365.833,179.5 369.5,179.5C 369.544,182.481 369.877,182.814 370.5,180.5C 369.452,178.59 369.452,176.756 370.5,175C 371.5,174.333 372.5,174.333 373.5,175C 375.752,179.442 378.418,179.609 381.5,175.5C 382.499,164.854 382.832,154.187 382.5,143.5C 376.979,143.946 371.645,143.446 366.5,142C 372.833,141.667 379.167,141.333 385.5,141C 386.798,138.86 387.465,139.026 387.5,141.5C 387.444,142.737 386.944,143.737 386,144.5C 385.333,213.167 385.333,281.833 386,350.5C 386.925,351.047 387.758,351.713 388.5,352.5C 386.604,353.466 384.604,353.799 382.5,353.5C 382.198,341.961 382.531,330.461 383.5,319C 382.576,317.189 381.743,317.355 381,319.5C 380.667,318.833 380.333,318.167 380,317.5C 379.275,319.158 378.108,319.658 376.5,319C 375.139,317.416 374.472,315.582 374.5,313.5 Z"/></g>
<g><path style="opacity:1" fill="#ee9d5a" d="M 377.5,187.5 C 380.68,187.176 381.847,188.51 381,191.5C 375.584,199.33 370.417,207.33 365.5,215.5C 364.635,216.583 363.635,216.749 362.5,216C 359.703,212.201 356.536,208.701 353,205.5C 352.146,203.393 352.812,202.059 355,201.5C 357.849,204.016 360.349,206.849 362.5,210C 363.167,210.667 363.833,210.667 364.5,210C 368.732,202.359 373.066,194.859 377.5,187.5 Z"/></g>
<g><path style="opacity:1" fill="#efbe9b" d="M 427.5,262.5 C 426.209,262.263 425.209,262.596 424.5,263.5C 421.813,263.664 419.146,263.497 416.5,263C 415.167,262.333 415.167,261.667 416.5,261C 420.545,259.035 424.212,259.535 427.5,262.5 Z"/></g>
<g><path style="opacity:1" fill="#48466d" d="M 472.5,264.5 C 472.771,266.38 472.104,267.713 470.5,268.5C 471.575,264.062 469.908,262.062 465.5,262.5C 465.657,261.127 465.49,259.793 465,258.5C 461.71,261.548 458.21,264.215 454.5,266.5C 455.5,265.167 456.5,263.833 457.5,262.5C 460.129,261.04 462.629,259.374 465,257.5C 467.986,259.32 470.486,261.653 472.5,264.5 Z"/></g>
<g><path style="opacity:1" fill="#c7dcfa" d="M 219.5,231.5 C 220.833,244.833 220.833,258.167 219.5,271.5C 213.806,265.758 211.139,258.758 211.5,250.5C 211.461,242.932 214.127,236.599 219.5,231.5 Z"/></g>
<g><path style="opacity:1" fill="#c7d6ed" d="M 373.5,237.5 C 373.5,237.833 373.5,238.167 373.5,238.5C 373.5,238.833 373.5,239.167 373.5,239.5C 365.833,239.5 358.167,239.5 350.5,239.5C 350.5,248.5 350.5,257.5 350.5,266.5C 359.167,266.5 367.833,266.5 376.5,266.5C 377.167,237.167 377.833,237.167 378.5,266.5C 368.889,268.474 358.889,269.141 348.5,268.5C 348.5,258.167 348.5,247.833 348.5,237.5C 356.833,237.5 365.167,237.5 373.5,237.5 Z"/></g>
<g><path style="opacity:1" fill="#2c458a" d="M 470.5,268.5 C 469.07,268.579 467.736,268.246 466.5,267.5C 465.41,268.391 465.41,269.391 466.5,270.5C 459.948,276.598 455.948,275.265 454.5,266.5C 458.21,264.215 461.71,261.548 465,258.5C 465.49,259.793 465.657,261.127 465.5,262.5C 469.908,262.062 471.575,264.062 470.5,268.5 Z"/></g>
<g><path style="opacity:1" fill="#f5a66f" d="M 457.5,262.5 C 456.5,263.833 455.5,265.167 454.5,266.5C 452.31,267.748 451.977,269.414 453.5,271.5C 452.448,273.256 450.781,273.923 448.5,273.5C 447.833,273.5 447.167,273.5 446.5,273.5C 446.167,272.167 445.833,270.833 445.5,269.5C 447.144,269.286 448.644,269.62 450,270.5C 450.808,268.577 451.308,266.577 451.5,264.5C 450.522,262.223 449.855,259.89 449.5,257.5C 450.978,257.238 452.311,257.571 453.5,258.5C 453.291,259.086 452.957,259.586 452.5,260C 453.9,261.438 455.567,262.271 457.5,262.5 Z"/></g>
<g><path style="opacity:1" fill="#b99a8e" d="M 453.5,271.5 C 454.478,271.811 455.145,272.478 455.5,273.5C 453.604,274.466 451.604,274.799 449.5,274.5C 449.167,274.5 448.833,274.5 448.5,274.5C 448.5,274.167 448.5,273.833 448.5,273.5C 450.781,273.923 452.448,273.256 453.5,271.5 Z"/></g>
<g><path style="opacity:1" fill="#42466d" d="M 454.5,266.5 C 455.948,275.265 459.948,276.598 466.5,270.5C 465.41,269.391 465.41,268.391 466.5,267.5C 467.736,268.246 469.07,268.579 470.5,268.5C 468.35,272.413 465.016,274.58 460.5,275C 459.619,275.708 458.953,276.542 458.5,277.5C 456.473,277.662 454.473,277.495 452.5,277C 450.881,276.764 449.881,275.931 449.5,274.5C 451.604,274.799 453.604,274.466 455.5,273.5C 455.145,272.478 454.478,271.811 453.5,271.5C 451.977,269.414 452.31,267.748 454.5,266.5 Z"/></g>
<g><path style="opacity:1" fill="#3a3d4c" d="M 446.5,273.5 C 447.167,273.5 447.833,273.5 448.5,273.5C 448.5,273.833 448.5,274.167 448.5,274.5C 448.5,275.167 448.5,275.833 448.5,276.5C 447.833,276.5 447.167,276.5 446.5,276.5C 446.5,275.5 446.5,274.5 446.5,273.5 Z"/></g>
<g><path style="opacity:1" fill="#dda68f" d="M 472.5,264.5 C 473.598,265.601 473.765,266.934 473,268.5C 470.5,271 468,273.5 465.5,276C 466.448,276.483 467.448,276.649 468.5,276.5C 466.412,277.201 464.412,278.201 462.5,279.5C 460.62,279.771 459.287,279.104 458.5,277.5C 458.953,276.542 459.619,275.708 460.5,275C 465.016,274.58 468.35,272.413 470.5,268.5C 472.104,267.713 472.771,266.38 472.5,264.5 Z"/></g>
<g><path style="opacity:1" fill="#bbd0fd" d="M 402.5,273.5 C 406.846,273.334 411.179,273.501 415.5,274C 420.6,276.613 425.267,279.78 429.5,283.5C 429.291,284.086 428.957,284.586 428.5,285C 425.167,285.333 421.833,285.667 418.5,286C 415.098,288.188 411.432,289.688 407.5,290.5C 407.5,291.5 407.5,292.5 407.5,293.5C 415.648,292.463 423.648,290.463 431.5,287.5C 432.894,287.621 434.228,287.954 435.5,288.5C 437.149,290.65 438.982,292.65 441,294.5C 441.278,293.584 441.778,292.918 442.5,292.5C 442.593,298.516 442.926,304.516 443.5,310.5C 438.492,309.408 433.492,309.408 428.5,310.5C 433.168,314.335 438.501,316.668 444.5,317.5C 446.285,329.458 447.952,341.458 449.5,353.5C 445.818,353.665 442.152,353.499 438.5,353C 434.415,346.996 431.249,340.496 429,333.5C 427.647,332.315 426.48,330.981 425.5,329.5C 423.6,337.425 424.6,344.925 428.5,352C 420.334,352.094 412.667,350.094 405.5,346C 404.601,344.348 403.601,342.848 402.5,341.5C 402.5,318.833 402.5,296.167 402.5,273.5 Z"/></g>
<g><path style="opacity:1" fill="#394983" d="M 479.5,273.5 C 480.573,274.251 480.74,275.251 480,276.5C 477.63,279.039 475.13,281.372 472.5,283.5C 471.5,283.833 470.833,284.5 470.5,285.5C 469.262,286.412 467.928,286.579 466.5,286C 464.915,283.931 463.581,281.764 462.5,279.5C 464.412,278.201 466.412,277.201 468.5,276.5C 472.309,275.965 475.976,274.965 479.5,273.5 Z"/></g>
<g><path style="opacity:1" fill="#dee9fc" d="M 152.5,283.5 C 152.096,288.399 152.763,293.066 154.5,297.5C 153.507,305.984 153.174,314.651 153.5,323.5C 151.56,325.404 149.894,327.571 148.5,330C 144.674,332.277 140.674,334.277 136.5,336C 134.75,339.471 131.917,341.638 128,342.5C 122.261,341.141 116.928,338.807 112,335.5C 108.362,331.7 105.029,327.7 102,323.5C 98.39,316.823 97.7233,309.823 100,302.5C 105.444,292.722 112.944,284.889 122.5,279C 129.74,278.891 136.74,280.225 143.5,283C 146.482,283.498 149.482,283.665 152.5,283.5 Z"/></g>
<g><path style="opacity:1" fill="#6c80e0" d="M 161.5,258.5 C 163.807,262.437 166.14,266.437 168.5,270.5C 171.172,272.673 173.506,275.173 175.5,278C 177.025,279.009 178.692,279.509 180.5,279.5C 180.665,282.85 180.498,286.183 180,289.5C 173.527,283.699 168.193,277.032 164,269.5C 162.56,265.959 161.726,262.292 161.5,258.5 Z"/></g>
<g><path style="opacity:1" fill="#e6b194" d="M 206.5,282.5 C 207.209,283.404 208.209,283.737 209.5,283.5C 209.912,285.973 208.912,287.306 206.5,287.5C 204.833,287.5 203.167,287.5 201.5,287.5C 201.5,286.167 201.5,284.833 201.5,283.5C 203.117,282.962 204.784,282.629 206.5,282.5 Z"/></g>
<g><path style="opacity:1" fill="#dce7fc" d="M 200.5,287.5 C 198.167,289.167 196.167,291.167 194.5,293.5C 190.46,297.542 186.127,301.209 181.5,304.5C 181.5,302.167 181.5,299.833 181.5,297.5C 181.5,297.167 181.5,296.833 181.5,296.5C 181.5,291.5 181.5,286.5 181.5,281.5C 188.161,282.743 194.495,284.743 200.5,287.5 Z"/></g>
<g><path style="opacity:1" fill="#8c9df2" d="M 448.5,274.5 C 448.833,274.5 449.167,274.5 449.5,274.5C 449.881,275.931 450.881,276.764 452.5,277C 454.473,277.495 456.473,277.662 458.5,277.5C 459.287,279.104 460.62,279.771 462.5,279.5C 463.581,281.764 464.915,283.931 466.5,286C 467.928,286.579 469.262,286.412 470.5,285.5C 472.898,288.655 474.064,292.321 474,296.5C 474.333,307.167 474.667,317.833 475,328.5C 476.576,331.282 476.743,334.116 475.5,337C 476.424,338.811 477.257,338.645 478,336.5C 478.437,341.936 479.937,346.936 482.5,351.5C 483.485,355.634 483.818,359.968 483.5,364.5C 481.95,365.441 480.284,366.107 478.5,366.5C 477.542,366.047 476.708,365.381 476,364.5C 471.225,355.385 466.891,346.052 463,336.5C 462.802,338.382 462.302,340.048 461.5,341.5C 461.226,323.651 457.059,306.651 449,290.5C 449.375,285.766 449.209,281.099 448.5,276.5C 448.5,275.833 448.5,275.167 448.5,274.5 Z"/></g>
<g><path style="opacity:1" fill="#ee9c5a" d="M 381.5,281.5 C 379.738,282.262 378.738,283.596 378.5,285.5C 377.662,285.842 377.328,286.508 377.5,287.5C 373.386,293.029 369.719,299.029 366.5,305.5C 365.277,306.614 363.944,306.781 362.5,306C 357.918,301.966 354.918,297.133 353.5,291.5C 356.723,293.048 359.39,295.381 361.5,298.5C 363.192,302.265 364.525,302.265 365.5,298.5C 368.165,293.838 370.831,289.171 373.5,284.5C 373.5,284.167 373.5,283.833 373.5,283.5C 374.933,282.167 376.267,280.667 377.5,279C 378.793,278.51 380.127,278.343 381.5,278.5C 381.5,279.5 381.5,280.5 381.5,281.5 Z"/></g>
<g><path style="opacity:1" fill="#c5d3eb" d="M 373.5,283.5 C 373.5,283.833 373.5,284.167 373.5,284.5C 365.833,284.5 358.167,284.5 350.5,284.5C 350.5,293.5 350.5,302.5 350.5,311.5C 359.167,311.5 367.833,311.5 376.5,311.5C 376.23,303.445 376.563,295.445 377.5,287.5C 377.328,286.508 377.662,285.842 378.5,285.5C 378.5,294.833 378.5,304.167 378.5,313.5C 377.167,313.5 375.833,313.5 374.5,313.5C 365.833,313.5 357.167,313.5 348.5,313.5C 348.5,303.5 348.5,293.5 348.5,283.5C 356.833,283.5 365.167,283.5 373.5,283.5 Z"/></g>
<g><path style="opacity:1" fill="#2f5280" d="M 200.5,287.5 C 200.833,287.5 201.167,287.5 201.5,287.5C 203.167,287.5 204.833,287.5 206.5,287.5C 203.192,290.471 199.859,293.471 196.5,296.5C 195.599,295.71 194.932,294.71 194.5,293.5C 196.167,291.167 198.167,289.167 200.5,287.5 Z"/></g>
<g><path style="opacity:1" fill="#dde8fc" d="M 220.5,276.5 C 220.5,286.833 220.5,297.167 220.5,307.5C 218.442,308.933 216.108,309.6 213.5,309.5C 212.929,313.309 211.262,316.643 208.5,319.5C 205.951,324.924 204.285,330.591 203.5,336.5C 202.5,336.5 201.5,336.5 200.5,336.5C 198.93,344.994 194.43,351.327 187,355.5C 185.236,352.862 183.902,353.196 183,356.5C 182.259,355.359 181.425,355.359 180.5,356.5C 179.828,355.051 179.161,353.718 178.5,352.5C 180.15,339.945 180.816,327.279 180.5,314.5C 180.5,313.833 180.5,313.167 180.5,312.5C 186.14,307.527 191.473,302.194 196.5,296.5C 199.859,293.471 203.192,290.471 206.5,287.5C 208.912,287.306 209.912,285.973 209.5,283.5C 212.899,281.612 215.899,279.112 218.5,276C 219.437,275.308 220.103,275.475 220.5,276.5 Z"/></g>
<g><path style="opacity:1" fill="#b9c8f0" d="M 258.5,287.5 C 282.167,287.5 305.833,287.5 329.5,287.5C 329.5,288.5 329.5,289.5 329.5,290.5C 305.833,290.5 282.167,290.5 258.5,290.5C 258.5,289.5 258.5,288.5 258.5,287.5 Z"/></g>
<g><path style="opacity:1" fill="#f3f7f8" d="M 373.5,284.5 C 370.831,289.171 368.165,293.838 365.5,298.5C 364.167,298.5 362.833,298.5 361.5,298.5C 359.39,295.381 356.723,293.048 353.5,291.5C 354.918,297.133 357.918,301.966 362.5,306C 363.944,306.781 365.277,306.614 366.5,305.5C 369.719,299.029 373.386,293.029 377.5,287.5C 376.563,295.445 376.23,303.445 376.5,311.5C 367.833,311.5 359.167,311.5 350.5,311.5C 350.5,302.5 350.5,293.5 350.5,284.5C 358.167,284.5 365.833,284.5 373.5,284.5 Z"/></g>
<g><path style="opacity:1" fill="#6b80e0" d="M 446.5,276.5 C 447.167,276.5 447.833,276.5 448.5,276.5C 449.209,281.099 449.375,285.766 449,290.5C 457.059,306.651 461.226,323.651 461.5,341.5C 461.65,350.857 461.317,360.191 460.5,369.5C 458.035,369.767 455.701,370.434 453.5,371.5C 451.122,365.803 449.789,359.803 449.5,353.5C 447.952,341.458 446.285,329.458 444.5,317.5C 444.802,314.941 444.468,312.607 443.5,310.5C 442.926,304.516 442.593,298.516 442.5,292.5C 443.226,286.993 444.56,281.659 446.5,276.5 Z"/></g>
<g><path style="opacity:1" fill="#bacaf1" d="M 240.5,287.5 C 243.833,287.5 247.167,287.5 250.5,287.5C 250.415,289.929 249.415,291.929 247.5,293.5C 252.746,301.974 250.413,304.974 240.5,302.5C 239.313,301.176 239.646,300.176 241.5,299.5C 243.286,301.021 245.119,301.354 247,300.5C 247.847,297.51 246.68,296.176 243.5,296.5C 243.178,294.278 243.845,292.444 245.5,291C 243.866,290.506 242.199,290.34 240.5,290.5C 240.5,289.5 240.5,288.5 240.5,287.5 Z"/></g>
<g><path style="opacity:1" fill="#cbd8fd" d="M 258.5,293.5 C 273.833,293.5 289.167,293.5 304.5,293.5C 304.5,294.833 304.5,296.167 304.5,297.5C 289.167,297.5 273.833,297.5 258.5,297.5C 258.5,296.167 258.5,294.833 258.5,293.5 Z"/></g>
<g><path style="opacity:1" fill="#b5c2f4" d="M 260.5,294.5 C 274.849,294.167 289.182,294.501 303.5,295.5C 288.845,296.666 274.178,296.833 259.5,296C 260.056,295.617 260.389,295.117 260.5,294.5 Z"/></g>
<g><path style="opacity:1" fill="#c6d4f8" d="M 309.5,293.5 C 315.842,293.334 322.175,293.5 328.5,294C 329.337,295.011 329.67,296.178 329.5,297.5C 322.833,297.5 316.167,297.5 309.5,297.5C 309.5,296.167 309.5,294.833 309.5,293.5 Z"/></g>
<g><path style="opacity:1" fill="#b59dbc" d="M 181.5,296.5 C 181.5,296.833 181.5,297.167 181.5,297.5C 179.847,297.66 178.514,298.326 177.5,299.5C 171.167,299.5 164.833,299.5 158.5,299.5C 158.167,298.833 157.833,298.167 157.5,297.5C 165.595,298.994 173.595,298.66 181.5,296.5 Z"/></g>
<g><path style="opacity:1" fill="#ffdfb7" d="M 361.5,298.5 C 362.833,298.5 364.167,298.5 365.5,298.5C 364.525,302.265 363.192,302.265 361.5,298.5 Z"/></g>
<g><path style="opacity:1" fill="#fda462" d="M 158.5,299.5 C 164.833,299.5 171.167,299.5 177.5,299.5C 179.308,300.918 179.975,302.918 179.5,305.5C 178.542,306.962 177.376,308.295 176,309.5C 175.506,311.134 175.34,312.801 175.5,314.5C 175.5,315.167 175.833,315.5 176.5,315.5C 177.657,317.215 178.324,319.215 178.5,321.5C 177.191,328.757 176.025,336.091 175,343.5C 174.832,352.851 174.332,362.184 173.5,371.5C 171.591,372.348 169.591,372.682 167.5,372.5C 166.549,371.081 166.216,369.415 166.5,367.5C 166.828,362.125 166.495,356.792 165.5,351.5C 164.817,351.137 164.15,350.804 163.5,350.5C 164.73,333.144 163.063,316.144 158.5,299.5 Z"/></g>
<g><path style="opacity:1" fill="#efaf84" d="M 181.5,297.5 C 181.5,299.833 181.5,302.167 181.5,304.5C 181.5,304.833 181.5,305.167 181.5,305.5C 180.833,305.5 180.167,305.5 179.5,305.5C 179.975,302.918 179.308,300.918 177.5,299.5C 178.514,298.326 179.847,297.66 181.5,297.5 Z"/></g>
<g><path style="opacity:1" fill="#7b9be4" d="M 194.5,293.5 C 194.932,294.71 195.599,295.71 196.5,296.5C 191.473,302.194 186.14,307.527 180.5,312.5C 179.292,313.234 177.959,313.567 176.5,313.5C 176.351,312.448 176.517,311.448 177,310.5C 178.707,308.963 180.207,307.296 181.5,305.5C 181.5,305.167 181.5,304.833 181.5,304.5C 186.127,301.209 190.46,297.542 194.5,293.5 Z"/></g>
<g><path style="opacity:1" fill="#f4904f" d="M 158.5,299.5 C 163.063,316.144 164.73,333.144 163.5,350.5C 162.194,351.467 161.527,352.801 161.5,354.5C 160.12,355.706 158.953,355.373 158,353.5C 156.307,347.532 154.807,341.532 153.5,335.5C 153.342,332.098 153.676,328.764 154.5,325.5C 155.493,317.016 155.826,308.349 155.5,299.5C 156.5,299.5 157.5,299.5 158.5,299.5 Z"/></g>
<g><path style="opacity:1" fill="#d4e0fa" d="M 258.5,300.5 C 280.167,300.5 301.833,300.5 323.5,300.5C 323.5,301.833 323.5,303.167 323.5,304.5C 301.497,304.667 279.497,304.5 257.5,304C 258.337,302.989 258.67,301.822 258.5,300.5 Z"/></g>
<g><path style="opacity:1" fill="#b2c3f5" d="M 260.5,301.5 C 281.169,301.333 301.836,301.5 322.5,302C 312.154,303.157 301.654,303.657 291,303.5C 280.477,303.499 270.311,302.832 260.5,301.5 Z"/></g>
<g><path style="opacity:1" fill="#b39eae" d="M 179.5,305.5 C 180.167,305.5 180.833,305.5 181.5,305.5C 180.207,307.296 178.707,308.963 177,310.5C 176.517,311.448 176.351,312.448 176.5,313.5C 177.959,313.567 179.292,313.234 180.5,312.5C 180.5,313.167 180.5,313.833 180.5,314.5C 178.833,314.5 177.167,314.5 175.5,314.5C 175.34,312.801 175.506,311.134 176,309.5C 177.376,308.295 178.542,306.962 179.5,305.5 Z"/></g>
<g><path style="opacity:1" fill="#d7a287" d="M 154.5,297.5 C 155.5,297.5 156.5,297.5 157.5,297.5C 157.833,298.167 158.167,298.833 158.5,299.5C 157.5,299.5 156.5,299.5 155.5,299.5C 155.826,308.349 155.493,317.016 154.5,325.5C 154.5,316.167 154.5,306.833 154.5,297.5 Z"/></g>
<g><path style="opacity:1" fill="#e5f1fa" d="M 443.5,310.5 C 444.468,312.607 444.802,314.941 444.5,317.5C 438.501,316.668 433.168,314.335 428.5,310.5C 433.492,309.408 438.492,309.408 443.5,310.5 Z"/></g>
<g><path style="opacity:1" fill="#bbc7f2" d="M 318.5,313.5 C 328.603,311.969 336.103,315.635 341,324.5C 343.625,342.123 336.125,350.29 318.5,349C 305.493,342.813 302.327,333.313 309,320.5C 311.79,317.535 314.957,315.202 318.5,313.5 Z"/></g>
<g><path style="opacity:1" fill="#dee9fc" d="M 220.5,318.5 C 220.5,329.833 220.5,341.167 220.5,352.5C 217.197,354.161 213.863,355.828 210.5,357.5C 209.252,356.96 208.085,356.293 207,355.5C 206.667,355.833 206.333,356.167 206,356.5C 203.991,345.031 206.491,334.531 213.5,325C 214.854,323.706 216.188,323.54 217.5,324.5C 218.011,322.116 219.011,320.116 220.5,318.5 Z"/></g>
<g><path style="opacity:1" fill="#97a5e8" d="M 472.5,283.5 C 473.594,285.359 474.427,287.359 475,289.5C 475.589,300.172 476.255,310.838 477,321.5C 479.476,331.4 481.309,341.4 482.5,351.5C 479.937,346.936 478.437,341.936 478,336.5C 477.257,338.645 476.424,338.811 475.5,337C 476.743,334.116 476.576,331.282 475,328.5C 474.667,317.833 474.333,307.167 474,296.5C 474.064,292.321 472.898,288.655 470.5,285.5C 470.833,284.5 471.5,283.833 472.5,283.5 Z"/></g>
<g><path style="opacity:1" fill="#efa775" d="M 176.5,315.5 C 177.5,315.5 178.5,315.5 179.5,315.5C 177.424,334.442 176.091,353.442 175.5,372.5C 175.5,372.833 175.5,373.167 175.5,373.5C 173.167,373.5 170.833,373.5 168.5,373.5C 167.833,373.5 167.5,373.167 167.5,372.5C 169.591,372.682 171.591,372.348 173.5,371.5C 174.332,362.184 174.832,352.851 175,343.5C 176.025,336.091 177.191,328.757 178.5,321.5C 178.324,319.215 177.657,317.215 176.5,315.5 Z"/></g>
<g><path style="opacity:1" fill="#f6e8df" d="M 154.5,297.5 C 154.5,306.833 154.5,316.167 154.5,325.5C 153.676,328.764 153.342,332.098 153.5,335.5C 153.167,335.5 152.833,335.5 152.5,335.5C 151.571,338.675 150.738,342.009 150,345.5C 149.5,354.494 149.334,363.494 149.5,372.5C 147.229,355.826 148.563,339.493 153.5,323.5C 153.174,314.651 153.507,305.984 154.5,297.5 Z"/></g>
<g><path style="opacity:1" fill="#ebf7fe" d="M 319.5,315.5 C 333.314,315.146 339.814,321.813 339,335.5C 334.226,346.305 326.393,349.472 315.5,345C 308.625,339.166 306.792,331.999 310,323.5C 312.775,320.22 315.942,317.554 319.5,315.5 Z"/></g>
<g><path style="opacity:1" fill="#c3ceed" d="M 320.5,318.5 C 328.24,317.862 333.574,321.028 336.5,328C 336.167,328.5 335.833,329 335.5,329.5C 331.177,320.839 324.843,318.839 316.5,323.5C 315.167,325.5 313.833,327.5 312.5,329.5C 311.432,327.813 311.599,326.146 313,324.5C 315.075,321.89 317.575,319.89 320.5,318.5 Z"/></g>
<g><path style="opacity:1" fill="#d1ddf6" d="M 318.5,331.5 C 322.226,331.177 325.893,331.511 329.5,332.5C 326.979,335.316 323.979,335.982 320.5,334.5C 319.388,333.735 318.721,332.735 318.5,331.5 Z"/></g>
<g><path style="opacity:1" fill="#eededc" d="M 175.5,314.5 C 177.167,314.5 178.833,314.5 180.5,314.5C 180.816,327.279 180.15,339.945 178.5,352.5C 177.855,359.354 176.855,366.021 175.5,372.5C 176.091,353.442 177.424,334.442 179.5,315.5C 178.5,315.5 177.5,315.5 176.5,315.5C 175.833,315.5 175.5,315.167 175.5,314.5 Z"/></g>
<g><path style="opacity:1" fill="#b4c4ef" d="M 247.5,337.5 C 254.532,337.17 261.532,337.503 268.5,338.5C 265,338.833 261.5,339.167 258,339.5C 254.098,339.488 250.598,338.821 247.5,337.5 Z"/></g>
<g><path style="opacity:1" fill="#b6c2f4" d="M 273.5,337.5 C 280.532,337.17 287.532,337.503 294.5,338.5C 291,338.833 287.5,339.167 284,339.5C 280.098,339.488 276.598,338.821 273.5,337.5 Z"/></g>
<g><path style="opacity:1" fill="#bfcceb" d="M 311.5,333.5 C 313.685,335.947 316.018,338.447 318.5,341C 326.437,343.76 332.103,341.26 335.5,333.5C 336.294,337.092 334.961,339.925 331.5,342C 324.379,346.029 318.213,344.863 313,338.5C 311.991,336.975 311.491,335.308 311.5,333.5 Z"/></g>
<g><path style="opacity:1" fill="#fca463" d="M 152.5,335.5 C 152.833,335.5 153.167,335.5 153.5,335.5C 154.807,341.532 156.307,347.532 158,353.5C 158.953,355.373 160.12,355.706 161.5,354.5C 160.627,358.983 159.627,363.317 158.5,367.5C 156.896,368.287 156.229,369.62 156.5,371.5C 154.5,371.5 152.5,371.5 150.5,371.5C 150.369,359.449 151.036,347.449 152.5,335.5 Z"/></g>
<g><path style="opacity:1" fill="#c5d2f0" d="M 247.5,341.5 C 257.167,341.5 266.833,341.5 276.5,341.5C 276.5,342.5 276.5,343.5 276.5,344.5C 266.833,344.5 257.167,344.5 247.5,344.5C 247.5,343.5 247.5,342.5 247.5,341.5 Z"/></g>
<g><path style="opacity:1" fill="#e9f2fa" d="M 220.5,307.5 C 220.5,311.167 220.5,314.833 220.5,318.5C 219.011,320.116 218.011,322.116 217.5,324.5C 216.188,323.54 214.854,323.706 213.5,325C 206.491,334.531 203.991,345.031 206,356.5C 206.333,356.167 206.667,355.833 207,355.5C 208.085,356.293 209.252,356.96 210.5,357.5C 213.863,355.828 217.197,354.161 220.5,352.5C 220.5,360.833 220.5,369.167 220.5,377.5C 208.167,377.5 195.833,377.5 183.5,377.5C 180.899,376.199 178.232,374.866 175.5,373.5C 175.5,373.167 175.5,372.833 175.5,372.5C 176.855,366.021 177.855,359.354 178.5,352.5C 179.161,353.718 179.828,355.051 180.5,356.5C 181.425,355.359 182.259,355.359 183,356.5C 183.902,353.196 185.236,352.862 187,355.5C 194.43,351.327 198.93,344.994 200.5,336.5C 201.5,336.5 202.5,336.5 203.5,336.5C 204.285,330.591 205.951,324.924 208.5,319.5C 211.262,316.643 212.929,313.309 213.5,309.5C 216.108,309.6 218.442,308.933 220.5,307.5 Z"/></g>
<g><path style="opacity:1" fill="#e3f4ed" d="M 514.5,376.5 C 512.076,376.808 509.743,376.474 507.5,375.5C 510.126,373.177 512.793,370.843 515.5,368.5C 516.429,367.311 516.762,365.978 516.5,364.5C 514.409,364.318 512.409,364.652 510.5,365.5C 508.473,368.221 506.973,371.221 506,374.5C 505.282,375.451 504.449,375.617 503.5,375C 504.714,372.649 505.548,370.149 506,367.5C 509.491,363.854 511.324,359.52 511.5,354.5C 506.315,354.514 503.482,357.181 503,362.5C 501.985,366.44 501.485,370.44 501.5,374.5C 499.379,374.325 497.379,374.659 495.5,375.5C 496.184,373.815 497.517,372.815 499.5,372.5C 499.806,366.905 501.14,361.739 503.5,357C 502.971,355.441 502.304,353.941 501.5,352.5C 505.147,353.448 508.981,353.448 513,352.5C 513.333,353.167 513.667,353.833 514,354.5C 516.672,354.055 519.172,354.889 521.5,357C 518.914,358.261 516.414,358.428 514,357.5C 512.812,358.563 512.312,359.897 512.5,361.5C 514.806,361.993 517.139,362.326 519.5,362.5C 521.553,367.395 520.053,370.729 515,372.5C 514.342,374.108 514.842,375.275 516.5,376C 515.906,376.464 515.239,376.631 514.5,376.5 Z"/></g>
<g><path style="opacity:1" fill="#f2ab78" d="M 163.5,350.5 C 164.15,350.804 164.817,351.137 165.5,351.5C 166.495,356.792 166.828,362.125 166.5,367.5C 165.286,362.678 164.286,357.678 163.5,352.5C 162.818,353.243 162.151,353.909 161.5,354.5C 161.527,352.801 162.194,351.467 163.5,350.5 Z"/></g>
<g><path style="opacity:1" fill="#e7f1fa" d="M 449.5,353.5 C 449.789,359.803 451.122,365.803 453.5,371.5C 450.734,373.864 447.734,375.864 444.5,377.5C 436.5,377.5 428.5,377.5 420.5,377.5C 423.638,375.76 426.638,373.76 429.5,371.5C 433.5,370.167 433.5,368.833 429.5,367.5C 425.061,363.287 419.728,361.287 413.5,361.5C 410.038,360.518 406.371,360.185 402.5,360.5C 402.5,354.167 402.5,347.833 402.5,341.5C 403.601,342.848 404.601,344.348 405.5,346C 412.667,350.094 420.334,352.094 428.5,352C 424.6,344.925 423.6,337.425 425.5,329.5C 426.48,330.981 427.647,332.315 429,333.5C 431.249,340.496 434.415,346.996 438.5,353C 442.152,353.499 445.818,353.665 449.5,353.5 Z"/></g>
<g><path style="opacity:1" fill="#34467b" d="M 291.5,361.5 C 290.4,362.605 289.733,363.938 289.5,365.5C 289.167,365.5 288.833,365.5 288.5,365.5C 288.5,364.167 288.5,362.833 288.5,361.5C 287.167,361.5 285.833,361.5 284.5,361.5C 283.993,360.141 282.993,359.141 281.5,358.5C 295.5,357.167 309.5,357.167 323.5,358.5C 312.167,359.167 300.833,359.833 289.5,360.5C 289.957,361.298 290.624,361.631 291.5,361.5 Z"/></g>
<g><path style="opacity:1" fill="#e3f4ee" d="M 113.5,357.5 C 115.929,362.869 118.262,368.369 120.5,374C 120.389,375.722 119.889,375.888 119,374.5C 118.258,370.91 116.425,368.077 113.5,366C 112.167,365.333 110.833,365.333 109.5,366C 108.549,366.718 108.383,367.551 109,368.5C 111.597,371.202 114.43,373.536 117.5,375.5C 116.311,376.429 114.978,376.762 113.5,376.5C 111.646,372.226 108.313,369.892 103.5,369.5C 103.491,367.692 103.991,366.025 105,364.5C 108.374,362.596 111.208,360.263 113.5,357.5 Z"/></g>
<g><path style="opacity:1" fill="#e69b60" d="M 291.5,361.5 C 332.167,361.5 372.833,361.5 413.5,361.5C 413.573,363.027 412.906,364.027 411.5,364.5C 410.817,362.824 409.483,362.157 407.5,362.5C 369.165,362.333 330.832,362.5 292.5,363C 292,363.5 291.5,364 291,364.5C 290.501,368.152 290.335,371.818 290.5,375.5C 289.521,372.375 289.187,369.042 289.5,365.5C 289.733,363.938 290.4,362.605 291.5,361.5 Z"/></g>
<g><path style="opacity:1" fill="#9da5e3" d="M 413.5,361.5 C 419.728,361.287 425.061,363.287 429.5,367.5C 428.167,368.833 428.167,370.167 429.5,371.5C 426.638,373.76 423.638,375.76 420.5,377.5C 418.5,377.5 416.5,377.5 414.5,377.5C 414.167,377.5 413.833,377.5 413.5,377.5C 413.443,376.391 413.11,375.391 412.5,374.5C 418.75,376.787 423.75,375.287 427.5,370C 426.503,368.404 425.337,366.904 424,365.5C 423.586,365.957 423.086,366.291 422.5,366.5C 418.629,364.556 414.962,364.556 411.5,366.5C 411.5,365.833 411.5,365.167 411.5,364.5C 412.906,364.027 413.573,363.027 413.5,361.5 Z"/></g>
<g><path style="opacity:1" fill="#e7aa80" d="M 152.5,335.5 C 151.036,347.449 150.369,359.449 150.5,371.5C 152.5,371.5 154.5,371.5 156.5,371.5C 156.229,369.62 156.896,368.287 158.5,367.5C 157.85,369.435 157.517,371.435 157.5,373.5C 155.167,373.5 152.833,373.5 150.5,373.5C 149.833,373.5 149.5,373.167 149.5,372.5C 149.334,363.494 149.5,354.494 150,345.5C 150.738,342.009 151.571,338.675 152.5,335.5 Z"/></g>
<g><path style="opacity:1" fill="#2c458a" d="M 284.5,361.5 C 285.833,361.5 287.167,361.5 288.5,361.5C 288.5,362.833 288.5,364.167 288.5,365.5C 287.532,367.607 287.198,369.941 287.5,372.5C 285.473,372.662 283.473,372.495 281.5,372C 285.608,369.067 285.274,366.9 280.5,365.5C 280.5,367.167 280.5,368.833 280.5,370.5C 276.323,371.158 274.823,369.492 276,365.5C 277.045,364.627 277.878,363.627 278.5,362.5C 280.265,361.539 282.265,361.205 284.5,361.5 Z"/></g>
<g><path style="opacity:1" fill="#f99645" d="M 407.5,362.5 C 407.952,365.876 408.618,369.209 409.5,372.5C 370.6,373.829 331.766,373.829 293,372.5C 291.272,373.352 291.105,374.352 292.5,375.5C 291.833,375.5 291.167,375.5 290.5,375.5C 290.335,371.818 290.501,368.152 291,364.5C 291.5,364 292,363.5 292.5,363C 330.832,362.5 369.165,362.333 407.5,362.5 Z"/></g>
<g><path style="opacity:1" fill="#edeceb" d="M 166.5,367.5 C 166.216,369.415 166.549,371.081 167.5,372.5C 167.5,373.167 167.833,373.5 168.5,373.5C 168.5,374.833 168.5,376.167 168.5,377.5C 167.5,377.5 166.5,377.5 165.5,377.5C 162.554,376.694 159.888,375.361 157.5,373.5C 157.517,371.435 157.85,369.435 158.5,367.5C 159.627,363.317 160.627,358.983 161.5,354.5C 162.151,353.909 162.818,353.243 163.5,352.5C 164.286,357.678 165.286,362.678 166.5,367.5 Z"/></g>
<g><path style="opacity:1" fill="#2e3d63" d="M 429.5,367.5 C 433.5,368.833 433.5,370.167 429.5,371.5C 428.167,370.167 428.167,368.833 429.5,367.5 Z"/></g>
<g><path style="opacity:1" fill="#e5f0fa" d="M 478.5,366.5 C 479.344,371.138 478.011,374.805 474.5,377.5C 469.833,377.5 465.167,377.5 460.5,377.5C 460.5,374.833 460.5,372.167 460.5,369.5C 461.317,360.191 461.65,350.857 461.5,341.5C 462.302,340.048 462.802,338.382 463,336.5C 466.891,346.052 471.225,355.385 476,364.5C 476.708,365.381 477.542,366.047 478.5,366.5 Z"/></g>
<g><path style="opacity:1" fill="#aed0ab" d="M 127.5,377.5 C 122.167,377.5 116.833,377.5 111.5,377.5C 111.842,376.662 112.508,376.328 113.5,376.5C 114.978,376.762 116.311,376.429 117.5,375.5C 114.43,373.536 111.597,371.202 109,368.5C 108.383,367.551 108.549,366.718 109.5,366C 110.833,365.333 112.167,365.333 113.5,366C 116.425,368.077 118.258,370.91 119,374.5C 119.889,375.888 120.389,375.722 120.5,374C 118.262,368.369 115.929,362.869 113.5,357.5C 116.102,356.031 118.269,356.698 120,359.5C 121.512,364.393 122.512,369.393 123,374.5C 125.026,374.915 126.526,375.915 127.5,377.5 Z"/></g>
<g><path style="opacity:1" fill="#778ae6" d="M 412.5,374.5 C 412.5,373.833 412.167,373.5 411.5,373.5C 411.5,371.167 411.5,368.833 411.5,366.5C 414.962,364.556 418.629,364.556 422.5,366.5C 423.086,366.291 423.586,365.957 424,365.5C 425.337,366.904 426.503,368.404 427.5,370C 423.75,375.287 418.75,376.787 412.5,374.5 Z"/></g>
<g><path style="opacity:1" fill="#afd0ac" d="M 514.5,376.5 C 514.5,376.833 514.5,377.167 514.5,377.5C 508.167,377.5 501.833,377.5 495.5,377.5C 495.5,376.833 495.5,376.167 495.5,375.5C 497.379,374.659 499.379,374.325 501.5,374.5C 501.485,370.44 501.985,366.44 503,362.5C 503.482,357.181 506.315,354.514 511.5,354.5C 511.324,359.52 509.491,363.854 506,367.5C 505.548,370.149 504.714,372.649 503.5,375C 504.449,375.617 505.282,375.451 506,374.5C 506.973,371.221 508.473,368.221 510.5,365.5C 512.409,364.652 514.409,364.318 516.5,364.5C 516.762,365.978 516.429,367.311 515.5,368.5C 512.793,370.843 510.126,373.177 507.5,375.5C 509.743,376.474 512.076,376.808 514.5,376.5 Z"/></g>
<g><path style="opacity:1" fill="#7499ef" d="M 273.5,371.5 C 274.404,372.209 274.737,373.209 274.5,374.5C 266.361,375.831 257.861,376.498 249,376.5C 240.258,376.493 231.591,376.16 223,375.5C 222.333,344.5 222.333,313.5 223,282.5C 224.011,283.337 225.178,283.67 226.5,283.5C 226.5,312.833 226.5,342.167 226.5,371.5C 242.167,371.5 257.833,371.5 273.5,371.5 Z"/></g>
<g><path style="opacity:1" fill="#ed873f" d="M 407.5,362.5 C 409.483,362.157 410.817,362.824 411.5,364.5C 411.5,365.167 411.5,365.833 411.5,366.5C 411.5,368.833 411.5,371.167 411.5,373.5C 411.5,374.5 411.5,375.5 411.5,376.5C 371.663,376.832 331.996,376.499 292.5,375.5C 291.105,374.352 291.272,373.352 293,372.5C 331.766,373.829 370.6,373.829 409.5,372.5C 408.618,369.209 407.952,365.876 407.5,362.5 Z"/></g>
<g><path style="opacity:1" fill="#28487a" d="M 150.5,373.5 C 152.833,373.5 155.167,373.5 157.5,373.5C 159.888,375.361 162.554,376.694 165.5,377.5C 160.5,378.833 155.5,378.833 150.5,377.5C 150.5,376.167 150.5,374.833 150.5,373.5 Z"/></g>
<g><path style="opacity:1" fill="#82a0e3" d="M 220.5,276.5 C 223.167,278.167 225.833,279.833 228.5,281.5C 228.5,311.167 228.5,340.833 228.5,370.5C 243.5,370.5 258.5,370.5 273.5,370.5C 273.5,370.833 273.5,371.167 273.5,371.5C 257.833,371.5 242.167,371.5 226.5,371.5C 226.5,342.167 226.5,312.833 226.5,283.5C 225.178,283.67 224.011,283.337 223,282.5C 222.333,313.5 222.333,344.5 223,375.5C 231.591,376.16 240.258,376.493 249,376.5C 257.861,376.498 266.361,375.831 274.5,374.5C 275.683,375.504 277.016,376.338 278.5,377C 259.17,377.5 239.836,377.667 220.5,377.5C 220.5,369.167 220.5,360.833 220.5,352.5C 220.5,341.167 220.5,329.833 220.5,318.5C 220.5,314.833 220.5,311.167 220.5,307.5C 220.5,297.167 220.5,286.833 220.5,276.5 Z"/></g>
<g><path style="opacity:1" fill="#d78b59" d="M 411.5,373.5 C 412.167,373.5 412.5,373.833 412.5,374.5C 413.11,375.391 413.443,376.391 413.5,377.5C 372.833,377.5 332.167,377.5 291.5,377.5C 291.167,376.833 290.833,376.167 290.5,375.5C 291.167,375.5 291.833,375.5 292.5,375.5C 331.996,376.499 371.663,376.832 411.5,376.5C 411.5,375.5 411.5,374.5 411.5,373.5 Z"/></g>
<g><path style="opacity:1" fill="#284b82" d="M 483.5,364.5 C 485.246,365.249 486.246,366.583 486.5,368.5C 485.142,371.513 483.809,374.513 482.5,377.5C 479.833,378.833 477.167,378.833 474.5,377.5C 478.011,374.805 479.344,371.138 478.5,366.5C 480.284,366.107 481.95,365.441 483.5,364.5 Z"/></g>
<g><path style="opacity:1" fill="#284478" d="M 168.5,373.5 C 170.833,373.5 173.167,373.5 175.5,373.5C 178.232,374.866 180.899,376.199 183.5,377.5C 178.5,378.833 173.5,378.833 168.5,377.5C 168.5,376.167 168.5,374.833 168.5,373.5 Z"/></g>
<g><path style="opacity:1" fill="#4b5b76" d="M 288.5,365.5 C 288.833,365.5 289.167,365.5 289.5,365.5C 289.187,369.042 289.521,372.375 290.5,375.5C 290.833,376.167 291.167,376.833 291.5,377.5C 291.5,378.167 291.5,378.833 291.5,379.5C 220.164,379.833 148.83,379.5 77.5,378.5C 84.1335,377.503 90.8002,377.17 97.5,377.5C 102.167,377.5 106.833,377.5 111.5,377.5C 116.833,377.5 122.167,377.5 127.5,377.5C 135.167,377.5 142.833,377.5 150.5,377.5C 155.5,378.833 160.5,378.833 165.5,377.5C 166.5,377.5 167.5,377.5 168.5,377.5C 173.5,378.833 178.5,378.833 183.5,377.5C 195.833,377.5 208.167,377.5 220.5,377.5C 242.663,378.663 264.996,378.83 287.5,378C 288.464,373.934 288.797,369.767 288.5,365.5 Z"/></g>
<g><path style="opacity:1" fill="#2c467b" d="M 278.5,362.5 C 277.878,363.627 277.045,364.627 276,365.5C 274.823,369.492 276.323,371.158 280.5,370.5C 280.5,368.833 280.5,367.167 280.5,365.5C 285.274,366.9 285.608,369.067 281.5,372C 283.473,372.495 285.473,372.662 287.5,372.5C 287.198,369.941 287.532,367.607 288.5,365.5C 288.797,369.767 288.464,373.934 287.5,378C 264.996,378.83 242.663,378.663 220.5,377.5C 239.836,377.667 259.17,377.5 278.5,377C 277.016,376.338 275.683,375.504 274.5,374.5C 274.737,373.209 274.404,372.209 273.5,371.5C 273.5,371.167 273.5,370.833 273.5,370.5C 273.176,366.463 274.842,363.797 278.5,362.5 Z"/></g>
<g><path style="opacity:1" fill="#23467d" d="M 460.5,369.5 C 460.5,372.167 460.5,374.833 460.5,377.5C 455.167,378.833 449.833,378.833 444.5,377.5C 447.734,375.864 450.734,373.864 453.5,371.5C 455.701,370.434 458.035,369.767 460.5,369.5 Z"/></g>
<g><path style="opacity:0.693" fill="#57515b" d="M 291.5,377.5 C 332.167,377.5 372.833,377.5 413.5,377.5C 413.833,377.5 414.167,377.5 414.5,377.5C 414.5,378.167 414.5,378.833 414.5,379.5C 373.5,379.5 332.5,379.5 291.5,379.5C 291.5,378.833 291.5,378.167 291.5,377.5 Z"/></g>
<g><path style="opacity:0.851" fill="#4e5a77" d="M 414.5,377.5 C 416.5,377.5 418.5,377.5 420.5,377.5C 428.5,377.5 436.5,377.5 444.5,377.5C 449.833,378.833 455.167,378.833 460.5,377.5C 465.167,377.5 469.833,377.5 474.5,377.5C 477.167,378.833 479.833,378.833 482.5,377.5C 486.833,377.5 491.167,377.5 495.5,377.5C 501.833,377.5 508.167,377.5 514.5,377.5C 518.833,377.5 523.167,377.5 527.5,377.5C 533.868,377.17 540.202,377.504 546.5,378.5C 502.505,379.5 458.505,379.833 414.5,379.5C 414.5,378.833 414.5,378.167 414.5,377.5 Z"/></g>
</svg>
